<svg width="17" height="16" viewBox="0 0 17 16" fill="none" xmlns="http://www.w3.org/2000/svg">
<path d="M15.3265 8.15546C15.3265 7.57991 15.2778 7.15991 15.1724 6.72437H8.32031V9.32211H12.3424C12.2613 9.96769 11.8234 10.9399 10.8503 11.5932L10.8367 11.6802L13.0032 13.29L13.1533 13.3044C14.5318 12.0832 15.3265 10.2866 15.3265 8.15546" fill="#4285F4"/>
<path d="M8.31947 15C10.2899 15 11.9441 14.3778 13.1524 13.3044L10.8495 11.5933C10.2332 12.0055 9.40605 12.2933 8.31947 12.2933C6.38953 12.2933 4.75153 11.0722 4.16762 9.3844L4.08204 9.39137L1.82927 11.0636L1.7998 11.1422C2.99993 13.4288 5.46507 15 8.31947 15Z" fill="#34A853"/>
<path d="M4.16873 9.38448C4.01467 8.94893 3.9255 8.48223 3.9255 8.00003C3.9255 7.51778 4.01467 7.05113 4.16063 6.61558L4.15655 6.52282L1.87554 4.82373L1.80091 4.85778C1.30628 5.80668 1.02246 6.87226 1.02246 8.00003C1.02246 9.1278 1.30628 10.1933 1.80091 11.1422L4.16873 9.38448" fill="#FBBC05"/>
<path d="M8.3195 3.70665C9.68991 3.70665 10.6143 4.27442 11.1414 4.7489L13.2011 2.82C11.9362 1.69223 10.29 1 8.3195 1C5.46509 1 2.99993 2.5711 1.7998 4.85775L4.15953 6.61555C4.75154 4.92777 6.38956 3.70665 8.3195 3.70665" fill="#EB4335"/>
</svg>
