<svg width="18" height="18" viewBox="0 0 18 18" fill="none" xmlns="http://www.w3.org/2000/svg">
<path d="M14.9117 3.66094L14.3597 3.10898C14.2037 2.95299 13.9157 2.977 13.7357 3.19296L11.8156 5.10093C10.9515 4.72897 10.0036 4.54897 9.00757 4.54897C6.04348 4.56093 3.47565 6.28891 2.23956 8.77306C2.16754 8.92905 2.16754 9.121 2.23956 9.25299C2.81551 10.429 3.67956 11.401 4.75957 12.133L3.18757 13.729C3.00757 13.909 2.98357 14.1969 3.1036 14.353L3.65556 14.9049C3.81155 15.0609 4.09954 15.0369 4.27954 14.8209L14.8155 4.28503C15.0435 4.10513 15.0675 3.81716 14.9115 3.66115L14.9117 3.66094ZM9.64357 7.28486C9.43956 7.23684 9.2236 7.17688 9.01958 7.17688C7.99955 7.17688 7.18363 7.99289 7.18363 9.01282C7.18363 9.21683 7.23164 9.43279 7.29161 9.63681L6.48752 10.4288C6.24756 10.0089 6.11557 9.54079 6.11557 9.01285C6.11557 7.41687 7.39959 6.13285 8.99557 6.13285C9.52361 6.13285 9.99159 6.26484 10.4116 6.50481L9.64357 7.28486Z" fill="#666666" fill-opacity="0.8"/>
<path d="M15.7755 8.77307C15.3555 7.93304 14.8035 7.17709 14.1196 6.56506L11.8875 8.77307V9.01304C11.8875 10.609 10.6035 11.893 9.00752 11.893H8.76755L7.35156 13.309C7.87961 13.417 8.43157 13.489 8.97157 13.489C11.9357 13.489 14.5035 11.761 15.7396 9.26494C15.8476 9.09689 15.8476 8.92895 15.7755 8.77294L15.7755 8.77307Z" fill="#666666" fill-opacity="0.8"/>
</svg>
