<svg width="131" height="49" viewBox="0 0 131 49" fill="none" xmlns="http://www.w3.org/2000/svg">
<g clip-path="url(#clip0_1551_1440)">
<path fill-rule="evenodd" clip-rule="evenodd" d="M126.16 48.6799H5.22601C2.55887 48.6799 0.386719 45.9658 0.386719 42.6603V6.54299C0.386719 3.22548 2.55887 0.523438 5.22601 0.523438H126.16C128.825 0.523438 131 3.22548 131 6.54299V42.6603C131 45.9658 128.825 48.6799 126.16 48.6799Z" fill="black"/>
<path fill-rule="evenodd" clip-rule="evenodd" d="M126.16 1.48717C128.397 1.48717 130.228 3.75988 130.228 6.54299V42.6603C130.228 45.4434 128.409 47.7161 126.16 47.7161H5.22601C2.98898 47.7161 1.15803 45.4434 1.15803 42.6603V6.54299C1.15803 3.75988 2.97697 1.48717 5.22601 1.48717C5.22601 1.48717 126.16 1.48717 126.16 1.48717ZM126.16 0.523438H5.22601C2.55887 0.523438 0.386719 3.23749 0.386719 6.54299V42.6603C0.386719 45.9778 2.55887 48.6799 5.22601 48.6799H126.16C128.825 48.6799 131 45.9778 131 42.6603V6.54299C131 3.23749 128.825 0.523438 126.16 0.523438Z" fill="#A6A6A6"/>
<path d="M69.1961 16.4532C68.3238 16.4532 67.5886 16.0719 67.0071 15.3214C66.4304 14.5918 66.1084 13.5861 66.1228 12.5593C66.1228 11.4634 66.4208 10.5357 67.0071 9.80019C67.5862 9.04962 68.3214 8.66833 69.1937 8.66833C70.0563 8.66833 70.7915 9.04962 71.3826 9.80019C71.9689 10.5598 72.2669 11.4875 72.2669 12.5593C72.2573 13.6581 71.9593 14.5858 71.3826 15.3184C70.8036 16.0749 70.0683 16.4532 69.1961 16.4532ZM43.2431 16.4532C42.3901 16.4532 41.65 16.0779 41.0445 15.3364C40.4438 14.5978 40.1387 13.6641 40.1387 12.5623C40.1387 11.4604 40.4438 10.5267 41.0445 9.78818C41.638 9.04662 42.3781 8.67134 43.2431 8.67134C43.666 8.67134 44.0769 8.77642 44.471 8.98958C44.8578 9.19673 45.1726 9.47895 45.4057 9.82421L45.4633 9.91128L44.8122 10.7099L44.7449 10.6108C44.3773 10.0644 43.8847 9.79719 43.2335 9.79719C42.652 9.79719 42.145 10.0554 41.7269 10.5658C41.3064 11.0792 41.0926 11.7517 41.0926 12.5653C41.0926 13.3789 41.3064 14.0514 41.7269 14.5648C42.145 15.0752 42.652 15.3334 43.2335 15.3334C43.8534 15.3334 44.3749 15.0752 44.7809 14.5648C45.0212 14.2646 45.1702 13.8442 45.2231 13.3128H43.135V12.19H46.1193L46.1313 12.2921C46.1529 12.4812 46.1746 12.6764 46.1746 12.8565C46.1746 13.8923 45.9247 14.7299 45.4297 15.3484C44.8674 16.0809 44.1322 16.4532 43.2431 16.4532ZM77.7501 16.2941H76.8298L74.0113 10.6588L74.0354 11.6736V16.2911H73.1151V8.83046H74.1651L74.1939 8.8875L76.8443 14.1955L76.8202 13.1838V8.83046H77.7501V16.2941V16.2941ZM62.2807 16.2941H61.3484V9.95331H59.7313V8.83046H63.8954V9.95331H62.2783V16.2941H62.2807ZM58.972 16.2941H58.0421V8.83046H58.972V16.2941ZM53.7459 16.2941H52.816V9.95331H51.1989V8.83046H55.363V9.95331H53.7459V16.2941ZM50.6102 16.2821H47.0444V8.83046H50.6102V9.95331H47.9767V12.0009H50.3531V13.1117H47.9767V15.1592H50.6102V16.2821ZM67.6895 14.5498C68.1052 15.0692 68.6098 15.3304 69.1961 15.3304C69.7992 15.3304 70.2918 15.0752 70.7026 14.5498C71.1111 14.0394 71.3178 13.3699 71.3178 12.5623C71.3178 11.7547 71.1111 11.0822 70.705 10.5748C70.2893 10.0554 69.7824 9.79419 69.1985 9.79419C68.5954 9.79419 68.1028 10.0494 67.6943 10.5748C67.2858 11.0852 67.0792 11.7547 67.0792 12.5623C67.0792 13.3699 67.2834 14.0424 67.6895 14.5498Z" fill="white"/>
<path fill-rule="evenodd" clip-rule="evenodd" d="M66.0354 26.7151C63.7647 26.7151 61.9241 28.8677 61.9241 31.837C61.9241 34.7792 63.7767 36.9589 66.0354 36.9589C68.306 36.9589 70.1466 34.7912 70.1466 31.837C70.1466 28.8677 68.306 26.7151 66.0354 26.7151ZM66.0354 34.9293C64.7931 34.9293 63.7238 33.6443 63.7238 31.825C63.7238 29.9786 64.7955 28.7206 66.0354 28.7206C67.2776 28.7206 68.3469 29.9786 68.3469 31.825C68.3493 33.6564 67.2776 34.9293 66.0354 34.9293ZM57.0656 26.7151C54.7949 26.7151 52.9544 28.8677 52.9544 31.837C52.9544 34.7792 54.807 36.9589 57.0656 36.9589C59.3363 36.9589 61.1768 34.7912 61.1768 31.837C61.1768 28.8677 59.3339 26.7151 57.0656 26.7151ZM57.0656 34.9293C55.8234 34.9293 54.7541 33.6443 54.7541 31.825C54.7541 29.9786 55.8258 28.7206 57.0656 28.7206C58.3079 28.7206 59.3771 29.9786 59.3771 31.825C59.3771 33.6564 58.3079 34.9293 57.0656 34.9293ZM46.3923 28.2793V30.4469H50.5564C50.429 31.6629 50.107 32.5605 49.6144 33.176C49.0041 33.9386 48.0622 34.7672 46.4019 34.7672C43.8429 34.7672 41.8413 32.1852 41.8413 28.9878C41.8413 25.7904 43.8429 23.2085 46.4019 23.2085C47.7835 23.2085 48.7903 23.89 49.5376 24.7606L50.7678 23.2235C49.7298 21.9805 48.3482 21.0288 46.4115 21.0288C42.9009 21.0288 39.9551 24.6015 39.9551 28.9758C39.9551 33.3621 42.8985 36.9228 46.4115 36.9228C48.3073 36.9228 49.7298 36.1482 50.8543 34.6891C52.0005 33.2571 52.3633 31.2365 52.3633 29.6063C52.3633 29.0989 52.332 28.6426 52.2672 28.2553H46.3899C46.3923 28.2523 46.3923 28.2793 46.3923 28.2793ZM90.0492 29.9666C89.7056 28.8167 88.6676 26.7031 86.5387 26.7031C84.429 26.7031 82.6749 28.7777 82.6749 31.825C82.6749 34.7011 84.4098 36.9468 86.7429 36.9468C88.6171 36.9468 89.708 35.5148 90.1573 34.6741L88.7661 33.5092C88.3048 34.3649 87.6632 34.9263 86.7525 34.9263C85.8323 34.9263 85.1883 34.4039 84.7606 33.3741L90.2414 30.537C90.2414 30.54 90.0492 29.9666 90.0492 29.9666ZM84.4602 31.6779C84.417 29.6994 85.6905 28.6936 86.6012 28.6936C87.3196 28.6936 87.9179 29.1349 88.1222 29.7774L84.4602 31.6779ZM80.0078 36.6406H81.8075V21.5932H80.0078V36.6406ZM77.0523 27.853H76.9874C76.5814 27.2495 75.8101 26.7031 74.8249 26.7031C72.7801 26.7031 70.8963 28.9518 70.8963 31.84C70.8963 34.7162 72.7705 36.9378 74.8249 36.9378C75.798 36.9378 76.5814 36.3884 76.9874 35.773H77.0523V36.5085C77.0523 38.463 76.2161 39.5168 74.8682 39.5168C73.7653 39.5168 73.0805 38.526 72.8017 37.6974L71.2375 38.514C71.6868 39.8651 72.8858 41.5373 74.8658 41.5373C76.9754 41.5373 78.7631 39.9851 78.7631 36.1993V27.0093H77.0619V27.853C77.0643 27.853 77.0523 27.853 77.0523 27.853ZM74.9859 34.9293C73.7436 34.9293 72.7056 33.6323 72.7056 31.84C72.7056 30.0326 73.7436 28.7236 74.9859 28.7236C76.2161 28.7236 77.1701 30.0476 77.1701 31.84C77.1821 33.6323 76.2185 34.9293 74.9859 34.9293ZM98.4759 21.5932H94.1725V36.6406H95.9722V30.9423H98.4783C100.47 30.9423 102.429 29.1379 102.429 26.2738C102.429 23.4096 100.477 21.5932 98.4759 21.5932ZM98.5288 28.8407H95.9698V23.6768H98.5288C99.8768 23.6768 100.638 25.0669 100.638 26.2588C100.638 27.4387 99.8672 28.8407 98.5288 28.8407ZM109.642 26.6881C108.335 26.6881 106.987 27.4116 106.429 28.9878L108.025 29.8165C108.368 28.9878 108.998 28.7056 109.663 28.7056C110.596 28.7056 111.538 29.4021 111.559 30.6451V30.8042C111.237 30.576 110.531 30.2278 109.685 30.2278C107.962 30.2278 106.215 31.4047 106.215 33.6113C106.215 35.6319 107.628 36.9288 109.202 36.9288C110.411 36.9288 111.076 36.2473 111.492 35.4577H111.557V36.6226H113.292V30.8582C113.292 28.1742 111.696 26.6881 109.642 26.6881ZM109.416 34.9293C108.827 34.9293 108.003 34.569 108.003 33.6443C108.003 32.4795 109.032 32.0381 109.909 32.0381C110.702 32.0381 111.076 32.2513 111.547 32.5455C111.418 33.8965 110.504 34.9173 109.416 34.9293ZM119.621 27.0093L117.554 33.5363H117.49L115.349 27.0093H113.412L116.624 36.1332L114.794 41.2041H116.668L121.61 27.0093H119.621ZM103.421 36.6406H105.221V21.5932H103.421V36.6406Z" fill="white"/>
<path fill-rule="evenodd" clip-rule="evenodd" d="M10.4407 9.59339C10.162 9.96867 10.001 10.5421 10.001 11.2927V37.9138C10.001 38.6644 10.162 39.2378 10.4503 39.5981L10.5248 39.6791L22.462 24.7639V24.4306L10.5152 9.51233L10.4407 9.59339Z" fill="url(#paint0_linear_1551_1440)"/>
<path fill-rule="evenodd" clip-rule="evenodd" d="M26.4307 29.7499L22.4492 24.7752V24.4269L26.4307 19.4521L26.5172 19.5182L31.2267 22.8627C32.5747 23.8114 32.5747 25.3786 31.2267 26.3394L26.5172 29.6839L26.4307 29.7499Z" fill="url(#paint1_linear_1551_1440)"/>
<path fill-rule="evenodd" clip-rule="evenodd" d="M26.5192 29.6845L22.4512 24.6017L10.4395 39.61C10.8792 40.1985 11.6168 40.2645 12.441 39.6911L26.5192 29.6845Z" fill="url(#paint2_linear_1551_1440)"/>
<path fill-rule="evenodd" clip-rule="evenodd" d="M26.5192 19.5187L12.441 9.52716C11.6168 8.93871 10.8768 9.01977 10.4395 9.60822L22.4512 24.6016L26.5192 19.5187Z" fill="url(#paint3_linear_1551_1440)"/>
<path opacity="0.2" fill-rule="evenodd" clip-rule="evenodd" d="M26.4358 29.5762L12.4537 39.5017C11.6728 40.0631 10.976 40.0241 10.5266 39.5137L10.4521 39.6068L10.5266 39.6878C10.976 40.1952 11.6728 40.2372 12.4537 39.6758L26.5319 29.6843L26.4358 29.5762Z" fill="black"/>
<path opacity="0.12" fill-rule="evenodd" clip-rule="evenodd" d="M31.228 26.1659L26.4199 29.5764L26.5064 29.6845L31.216 26.34C31.8912 25.8596 32.2228 25.2292 32.2228 24.6017C32.1819 25.1781 31.8383 25.7245 31.228 26.1659Z" fill="black"/>
<path opacity="0.25" fill-rule="evenodd" clip-rule="evenodd" d="M12.4422 9.70128L31.23 23.0374C31.8403 23.4667 32.1839 24.0281 32.2367 24.6015C32.2367 23.9741 31.9052 23.3436 31.23 22.8632L12.4422 9.52715C11.0943 8.56342 10.001 9.36803 10.001 11.2925V11.4666C10.001 9.53916 11.0943 8.74957 12.4422 9.70128Z" fill="white"/>
</g>
<defs>
<linearGradient id="paint0_linear_1551_1440" x1="21.3913" y1="11.0055" x2="1.80312" y2="15.1827" gradientUnits="userSpaceOnUse">
<stop stop-color="#00A0FF"/>
<stop offset="0.00657" stop-color="#00A1FF"/>
<stop offset="0.2601" stop-color="#00BEFF"/>
<stop offset="0.5122" stop-color="#00D2FF"/>
<stop offset="0.7604" stop-color="#00DFFF"/>
<stop offset="1" stop-color="#00E3FF"/>
</linearGradient>
<linearGradient id="paint1_linear_1551_1440" x1="32.9846" y1="24.6011" x2="9.67014" y2="24.6011" gradientUnits="userSpaceOnUse">
<stop stop-color="#FFE000"/>
<stop offset="0.4087" stop-color="#FFBD00"/>
<stop offset="0.7754" stop-color="#FFA500"/>
<stop offset="1" stop-color="#FF9C00"/>
</linearGradient>
<linearGradient id="paint2_linear_1551_1440" x1="24.3072" y1="27.3675" x2="3.40285" y2="55.5263" gradientUnits="userSpaceOnUse">
<stop stop-color="#FF3A44"/>
<stop offset="1" stop-color="#C31162"/>
</linearGradient>
<linearGradient id="paint3_linear_1551_1440" x1="7.41477" y1="0.7386" x2="16.7429" y2="13.3173" gradientUnits="userSpaceOnUse">
<stop stop-color="#32A071"/>
<stop offset="0.0685" stop-color="#2DA771"/>
<stop offset="0.4762" stop-color="#15CF74"/>
<stop offset="0.8009" stop-color="#06E775"/>
<stop offset="1" stop-color="#00F076"/>
</linearGradient>
<clipPath id="clip0_1551_1440">
<rect width="130.613" height="48.1564" fill="white" transform="translate(0.386719 0.523438)"/>
</clipPath>
</defs>
</svg>
