<svg width="131" height="49" viewBox="0 0 131 49" fill="none" xmlns="http://www.w3.org/2000/svg">
<g clip-path="url(#clip0_1551_1430)">
<path d="M129.231 43.0336C129.231 45.5625 127.591 47.6097 125.566 47.6097H4.53386C2.50862 47.6097 0.869141 45.5625 0.869141 43.0336V6.18378C0.869141 3.65488 2.50862 1.60767 4.53386 1.60767H125.566C127.591 1.60767 129.231 3.65488 129.231 6.18378V43.0336Z" fill="white"/>
<path d="M125.565 48.6931H4.53268C2.02524 48.6931 0 46.1642 0 43.0332V6.18337C0 3.05234 2.02524 0.523438 4.53268 0.523438H125.565C128.072 0.523438 130.098 3.05234 130.098 6.18337V42.9127C130.098 46.1642 128.072 48.6931 125.565 48.6931Z" fill="#A6A6A6"/>
<path d="M129.231 43.0336C129.231 45.5625 127.591 47.6097 125.566 47.6097H4.53386C2.50862 47.6097 0.869141 45.5625 0.869141 43.0336V6.18378C0.869141 3.65488 2.50862 1.60767 4.53386 1.60767H125.566C127.591 1.60767 129.231 3.65488 129.231 6.18378V43.0336Z" fill="black"/>
<path d="M29.0283 24.3668C29.0283 20.5132 31.5358 18.5865 31.7286 18.466C30.282 15.8167 27.9675 15.4554 27.196 15.4554C25.2672 15.2146 23.4348 16.9005 22.4704 16.9005C21.506 16.9005 19.963 15.4554 18.4199 15.5759C16.3947 15.5759 14.4659 17.1414 13.4051 19.4294C11.1869 24.126 12.8264 31.1106 14.9481 34.9641C16.0089 36.8909 17.2626 38.9381 18.8057 38.8177C20.3487 38.6973 20.9274 37.6135 22.8562 37.6135C24.6885 37.6135 25.2672 38.8177 26.9066 38.8177C28.5461 38.8177 29.607 36.8909 30.6678 35.0846C31.9215 32.9169 32.4037 30.8697 32.4037 30.7493C32.3073 30.5084 29.1248 28.9429 29.0283 24.3668ZM25.9422 12.9265C26.8102 11.6019 27.3888 9.7955 27.196 7.98914C25.9422 8.10956 24.4956 9.07295 23.5312 10.2772C22.7597 11.361 22.0846 13.2878 22.2775 14.9737C23.7241 15.2146 25.0743 14.2512 25.9422 12.9265Z" fill="white"/>
<path d="M125.565 0.523438H60.7568L86.1206 48.6931H125.565C128.072 48.6931 130.097 46.1642 130.097 43.0332V6.18337C130.097 3.05234 128.072 0.523438 125.565 0.523438Z" fill="url(#paint0_linear_1551_1430)"/>
<path d="M51.7866 38.4576H49.5685L48.4112 33.7611H44.2643L43.107 38.4576H40.9854L45.1323 22.4412H47.6397L51.7866 38.4576ZM48.0255 31.8343L46.9646 27.6195C46.8682 27.1378 46.6753 26.1744 46.2896 24.6089C46.1931 25.3314 46.0002 26.2948 45.7109 27.6195L44.5536 31.8343H48.0255ZM62.395 32.5569C62.395 34.4836 62.0093 36.0492 61.1413 37.2534C60.3698 38.2168 59.4054 38.8189 58.2481 38.8189C56.9944 38.8189 56.1264 38.2168 55.6442 37.133V43.1542H53.619V30.7505C53.619 29.5463 53.619 28.2216 53.5225 26.8969H55.3549L55.4513 28.7033C56.1264 27.3786 57.1873 26.6561 58.5374 26.6561C59.5983 26.6561 60.5627 27.1378 61.2377 28.2216C62.0093 29.3054 62.395 30.7505 62.395 32.5569ZM60.2733 32.6773C60.2733 31.5935 60.0805 30.6301 59.6947 29.9075C59.2125 29.185 58.6339 28.8237 57.8623 28.8237C57.3801 28.8237 56.8979 29.0646 56.5122 29.4258C56.1264 29.9075 55.8371 30.3892 55.7407 31.1118C55.6442 31.3526 55.6442 31.5935 55.6442 31.8343V33.7611C55.6442 34.6041 55.8371 35.3266 56.2229 35.9287C56.6086 36.5309 57.1873 36.7717 57.8623 36.7717C58.6339 36.7717 59.2125 36.4104 59.6947 35.6879C60.0805 34.8449 60.2733 33.8815 60.2733 32.6773ZM73.0034 32.5569C73.0034 34.4836 72.6177 36.0492 71.7497 37.2534C70.9782 38.2168 70.0138 38.8189 68.8565 38.8189C67.6028 38.8189 66.7348 38.2168 66.2526 37.133V43.1542H64.2274V30.7505C64.2274 29.5463 64.2274 28.2216 64.1309 26.8969H65.9633L66.0597 28.7033C66.7348 27.3786 67.7957 26.6561 69.1458 26.6561C70.2067 26.6561 71.1711 27.1378 71.8461 28.2216C72.6177 29.3054 73.0034 30.7505 73.0034 32.5569ZM70.8817 32.6773C70.8817 31.5935 70.6889 30.6301 70.3031 29.9075C69.8209 29.185 69.2423 28.8237 68.4707 28.8237C67.9885 28.8237 67.5063 29.0646 67.1206 29.4258C66.7348 29.9075 66.4455 30.3892 66.3491 31.1118C66.2526 31.473 66.2526 31.7139 66.2526 31.8343V33.7611C66.2526 34.6041 66.4455 35.3266 66.8313 35.9287C67.217 36.5309 67.7957 36.7717 68.4707 36.7717C69.2423 36.7717 69.8209 36.4104 70.3031 35.6879C70.6889 34.8449 70.8817 33.8815 70.8817 32.6773ZM84.8655 34.0019C84.8655 35.3266 84.4798 36.5309 83.7083 37.3738C82.8403 38.3372 81.683 38.8189 80.2364 38.8189C78.8863 38.8189 77.729 38.4576 76.9575 37.8555L77.4397 35.6879C78.3076 36.4104 79.3685 36.6513 80.4293 36.6513C81.2008 36.6513 81.7795 36.4104 82.2617 36.0492C82.6474 35.5675 82.9367 35.0858 82.9367 34.2428C82.9367 33.6407 82.7439 33.0386 82.3581 32.5569C81.9723 32.0752 81.3937 31.7139 80.6222 31.3526C78.4041 30.2688 77.2468 28.8237 77.2468 26.7765C77.2468 25.4518 77.6325 24.368 78.4041 23.525C79.1756 22.6821 80.2364 22.3208 81.5866 22.3208C82.7439 22.3208 83.7083 22.5616 84.4798 23.0433L83.9011 25.0906C83.1296 24.6089 82.3581 24.368 81.3937 24.368C80.6222 24.368 80.14 24.6089 79.6578 25.0906C79.272 25.4518 79.1756 25.9335 79.1756 26.5356C79.1756 27.1378 79.3685 27.7399 79.7542 28.1012C80.14 28.4624 80.7186 28.9441 81.5866 29.3054C82.6474 29.9075 83.5154 30.5096 83.9976 31.2322C84.6727 31.9547 84.8655 32.9181 84.8655 34.0019ZM91.7128 28.8237H89.4947V34.4836C89.4947 35.9287 89.8804 36.6513 90.6519 36.6513C91.0377 36.6513 91.327 36.6513 91.5199 36.5309L91.6163 38.4576C91.2306 38.6985 90.6519 38.6985 89.9769 38.6985C89.2053 38.6985 88.5303 38.3372 88.0481 37.7351C87.5659 37.133 87.373 36.0492 87.373 34.6041V28.8237H86.0228V26.8969H87.373V24.7293L89.3982 24.0067V26.8969H91.6163L91.7128 28.8237ZM101.935 32.5569C101.935 34.3632 101.55 35.8083 100.682 36.8921C99.8137 38.0964 98.6565 38.6985 97.3063 38.6985C95.9561 38.6985 94.8953 38.0964 94.0273 37.0125C93.2558 35.9287 92.7736 34.4836 92.7736 32.7977C92.7736 30.9913 93.1594 29.5463 94.0273 28.342C94.8953 27.2582 95.9561 26.6561 97.4027 26.6561C98.7529 26.6561 99.8137 27.2582 100.682 28.342C101.55 29.4258 101.935 30.8709 101.935 32.5569ZM99.8137 32.6773C99.8137 31.5935 99.6209 30.7505 99.2351 29.9075C98.8493 28.9441 98.1743 28.5829 97.4027 28.5829C96.5348 28.5829 95.9561 29.0646 95.4739 29.9075C95.0882 30.6301 94.8953 31.5935 94.8953 32.6773C94.8953 33.7611 95.0882 34.6041 95.4739 35.447C95.9561 36.4104 96.5348 36.7717 97.3063 36.7717C98.0778 36.7717 98.7529 36.29 99.1387 35.3266C99.6209 34.6041 99.8137 33.7611 99.8137 32.6773ZM108.59 29.185C108.397 29.185 108.204 29.0646 107.915 29.0646C107.143 29.0646 106.661 29.4258 106.275 30.1484C105.889 30.7505 105.793 31.473 105.793 32.4364V38.4576H103.768V30.5096C103.768 29.3054 103.768 28.1012 103.671 26.8969H105.504L105.6 29.0646H105.697C105.889 28.342 106.275 27.7399 106.757 27.2582C107.143 26.8969 107.722 26.6561 108.204 26.6561C108.397 26.6561 108.59 26.6561 108.686 26.6561L108.59 29.185ZM117.848 32.1956C117.848 32.5569 117.848 32.9181 117.752 33.3998H111.579C111.579 34.4836 111.869 35.447 112.447 36.0492C112.93 36.5309 113.605 36.8921 114.473 36.8921C115.341 36.8921 116.209 36.7717 116.98 36.29L117.269 38.0964C116.401 38.5781 115.341 38.8189 114.183 38.8189C112.737 38.8189 111.579 38.3372 110.808 37.2534C110.036 36.1696 109.554 34.7245 109.554 33.0386C109.554 31.3526 109.94 29.7871 110.711 28.7033C111.483 27.499 112.544 26.8969 113.99 26.8969C115.341 26.8969 116.305 27.499 116.98 28.7033C117.559 29.4258 117.848 30.7505 117.848 32.1956ZM115.823 31.473C115.823 30.7505 115.726 30.0279 115.437 29.5463C115.051 28.8237 114.569 28.4624 113.798 28.4624C113.122 28.4624 112.544 28.8237 112.158 29.5463C111.772 30.1484 111.579 30.7505 111.579 31.5935L115.823 31.473Z" fill="white"/>
<path d="M43.5902 16.7803C43.0115 16.7803 42.5293 16.7803 42.1436 16.6599V8.95277C42.7222 8.83234 43.3008 8.83234 43.8795 8.83234C46.194 8.83234 47.3513 10.2774 47.3513 12.6859C47.3513 15.3352 46.0012 16.7803 43.5902 16.7803ZM43.9759 9.79573C43.6866 9.79573 43.3973 9.79574 43.2044 9.91616V15.8169C43.3008 15.8169 43.5902 15.8169 43.8795 15.8169C45.4225 15.8169 46.2905 14.7331 46.2905 12.6859C46.194 10.7591 45.4225 9.79573 43.9759 9.79573ZM50.7267 16.7803C49.3766 16.7803 48.5086 15.5761 48.5086 13.8902C48.5086 12.0838 49.3766 10.8796 50.7267 10.8796C52.0769 10.8796 52.9448 12.0838 52.9448 13.7697C52.9448 15.5761 52.0769 16.7803 50.7267 16.7803ZM50.7267 11.8429C49.9552 11.8429 49.5694 12.6859 49.5694 13.8902C49.5694 15.0944 50.0516 15.9374 50.7267 15.9374C51.4018 15.9374 51.884 14.974 51.884 13.8902C51.884 12.6859 51.4018 11.8429 50.7267 11.8429ZM60.5636 11L59.117 16.6599H58.1526L57.574 14.2514C57.3811 13.6493 57.2846 13.0472 57.1882 12.4451C57.0918 13.0472 56.9953 13.6493 56.8024 14.2514L56.1274 16.6599H55.163L53.8128 11H54.9701L55.4523 13.6493C55.5487 14.2514 55.6452 14.8535 55.7416 15.4557C55.838 14.974 55.9345 14.3719 56.1274 13.6493L56.8024 10.8796H57.6704L58.249 13.5289C58.4419 14.131 58.5384 14.8535 58.6348 15.4557C58.7312 14.8535 58.8277 14.2514 58.9241 13.5289L59.5028 10.8796L60.5636 11ZM65.7713 16.6599H64.8069V13.4085C64.8069 12.4451 64.5176 11.8429 63.8425 11.8429C63.2639 11.8429 62.8781 12.4451 62.8781 13.288V16.6599H61.9137V12.5655C61.9137 12.0838 61.9137 11.4817 61.9137 11H62.6853V11.8429C62.9746 11.2408 63.5532 10.8796 64.1319 10.8796C65.0963 10.8796 65.6749 11.8429 65.6749 13.288L65.7713 16.6599ZM68.5681 16.6599H67.6037V8.47107H68.5681V16.6599ZM72.2328 16.7803C70.8827 16.7803 70.0147 15.5761 70.0147 13.8902C70.0147 12.0838 70.8827 10.8796 72.2328 10.8796C73.583 10.8796 74.4509 12.0838 74.4509 13.7697C74.5474 15.5761 73.583 16.7803 72.2328 16.7803ZM72.3293 11.8429C71.5578 11.8429 71.172 12.6859 71.172 13.8902C71.172 15.0944 71.6542 15.9374 72.3293 15.9374C73.0044 15.9374 73.4865 14.974 73.4865 13.8902C73.4865 12.6859 73.0044 11.8429 72.3293 11.8429ZM78.5014 16.6599L78.405 16.0578C78.1157 16.5395 77.6335 16.7803 77.0548 16.7803C76.2833 16.7803 75.7047 16.0578 75.7047 15.0944C75.7047 13.6493 76.6691 12.9268 78.405 12.9268V12.8063C78.405 12.0838 78.1157 11.7225 77.4406 11.7225C76.9584 11.7225 76.5726 11.8429 76.2833 12.2042L75.994 11.3612C76.3798 11 76.9584 10.8796 77.537 10.8796C78.6943 10.8796 79.3694 11.6021 79.3694 13.288V15.3352C79.3694 15.9374 79.3694 16.2986 79.4658 16.6599H78.5014ZM78.3085 13.8902C77.1513 13.8902 76.6691 14.2514 76.6691 15.0944C76.6691 15.6965 76.9584 15.9374 77.3441 15.9374C77.8263 15.9374 78.3085 15.4557 78.3085 14.7331V13.8902ZM84.2878 16.6599V15.6965C83.9985 16.4191 83.5163 16.7803 82.8412 16.7803C81.7804 16.7803 80.9124 15.5761 80.9124 13.8902C80.9124 12.0838 81.7804 10.8796 82.9377 10.8796C83.5163 10.8796 83.9985 11.1204 84.1914 11.6021V8.47107H85.1558V15.2148C85.1558 15.8169 85.1558 16.2986 85.1558 16.7803L84.2878 16.6599ZM84.0949 13.4085C84.0949 12.5655 83.7092 11.9634 83.0341 11.9634C82.2626 11.9634 81.7804 12.8063 81.7804 14.0106C81.7804 15.2148 82.2626 15.9374 82.9377 15.9374C83.6128 15.9374 83.9985 15.2148 83.9985 14.3719L84.0949 13.4085ZM91.5208 16.7803C90.1707 16.7803 89.3027 15.5761 89.3027 13.8902C89.3027 12.0838 90.1707 10.8796 91.5208 10.8796C92.871 10.8796 93.7389 12.0838 93.7389 13.7697C93.8354 15.5761 92.871 16.7803 91.5208 16.7803ZM91.5208 11.8429C90.7493 11.8429 90.3635 12.6859 90.3635 13.8902C90.3635 15.0944 90.8458 15.9374 91.5208 15.9374C92.1959 15.9374 92.6781 14.974 92.6781 13.8902C92.7745 12.6859 92.2924 11.8429 91.5208 11.8429ZM99.236 16.6599H98.2716V13.4085C98.2716 12.4451 97.9823 11.8429 97.3072 11.8429C96.7286 11.8429 96.3428 12.4451 96.3428 13.288V16.6599H95.3784V12.5655C95.3784 12.0838 95.3784 11.4817 95.3784 11H96.2464V11.8429C96.5357 11.2408 97.1144 10.8796 97.693 10.8796C98.6574 10.8796 99.236 11.8429 99.236 13.288V16.6599ZM105.987 11.9634H104.83V14.7331C104.83 15.4557 105.022 15.8169 105.408 15.8169C105.601 15.8169 105.698 15.8169 105.89 15.8169V16.7803C105.698 16.9008 105.408 16.9008 105.119 16.9008C104.347 16.9008 103.865 16.2986 103.865 14.974V11.9634H103.19V11H103.865V10.0366L104.83 9.67531V11.1204H105.987V11.9634ZM111.387 16.6599H110.423V13.4085C110.423 12.4451 110.134 11.8429 109.459 11.8429C108.976 11.8429 108.494 12.3246 108.494 13.1676V16.5395H107.53V8.47107H108.494V11.8429C108.784 11.2408 109.266 10.8796 109.844 10.8796C110.809 10.8796 111.387 11.8429 111.387 13.288V16.6599ZM116.885 14.131H113.798C113.798 15.2148 114.377 15.8169 115.245 15.8169C115.727 15.8169 116.113 15.6965 116.499 15.5761L116.692 16.4191C116.306 16.6599 115.727 16.7803 115.149 16.7803C113.702 16.7803 112.931 15.6965 112.931 13.8902C112.931 12.2042 113.798 10.8796 115.052 10.8796C116.209 10.8796 116.981 11.9634 116.981 13.5289C116.885 13.7697 116.885 14.0106 116.885 14.131ZM115.92 13.288C115.92 12.4451 115.534 11.8429 114.956 11.8429C114.377 11.8429 113.895 12.4451 113.895 13.288H115.92Z" fill="white"/>
</g>
<defs>
<linearGradient id="paint0_linear_1551_1430" x1="95.4378" y1="48.8086" x2="95.4378" y2="-646.084" gradientUnits="userSpaceOnUse">
<stop stop-color="#1A1A1A" stop-opacity="0.1"/>
<stop offset="0.123" stop-color="#212121" stop-opacity="0.151"/>
<stop offset="0.308" stop-color="#353535" stop-opacity="0.227"/>
<stop offset="0.532" stop-color="#575757" stop-opacity="0.318"/>
<stop offset="0.783" stop-color="#858585" stop-opacity="0.421"/>
<stop offset="1" stop-color="#B3B3B3" stop-opacity="0.51"/>
</linearGradient>
<clipPath id="clip0_1551_1430">
<rect width="130.124" height="48.1564" fill="white" transform="translate(0 0.523438)"/>
</clipPath>
</defs>
</svg>
