<svg width="20" height="20" viewBox="0 0 20 20" fill="none" xmlns="http://www.w3.org/2000/svg">
<path d="M16.5688 4.06778L15.9556 3.45449C15.7822 3.28117 15.4622 3.30784 15.2622 3.5478L13.1287 5.66777C12.1687 5.25448 11.1155 5.05448 10.0087 5.05448C6.71531 5.06776 3.86216 6.98774 2.48873 9.74791C2.40871 9.92124 2.40871 10.1345 2.48873 10.2812C3.12867 11.5879 4.08873 12.6679 5.28873 13.4812L3.54207 15.2545C3.34207 15.4545 3.3154 15.7745 3.44877 15.9478L4.06206 16.5611C4.23538 16.7344 4.55537 16.7077 4.75537 16.4678L16.462 4.76121C16.7153 4.56132 16.742 4.24135 16.5687 4.06801L16.5688 4.06778ZM10.7154 8.09435C10.4887 8.041 10.2488 7.97437 10.0221 7.97437C8.88871 7.97437 7.98214 8.88106 7.98214 10.0143C7.98214 10.241 8.03549 10.4809 8.10212 10.7076L7.20869 11.5877C6.94206 11.121 6.7954 10.6009 6.7954 10.0143C6.7954 8.24103 8.22209 6.81435 9.9954 6.81435C10.5821 6.81435 11.1021 6.961 11.5687 7.22763L10.7154 8.09435Z" fill="#666666" fill-opacity="0.8"/>
<path d="M17.5289 9.7479C17.0623 8.81453 16.4489 7.97458 15.6889 7.29456L13.2089 9.7479V10.0145C13.2089 11.7878 11.7822 13.2145 10.0089 13.2145H9.74226L8.16895 14.7878C8.75566 14.9078 9.36895 14.9878 9.96895 14.9878C13.2624 14.9878 16.1155 13.0679 17.489 10.2944C17.6089 10.1077 17.6089 9.9211 17.5289 9.74776L17.5289 9.7479Z" fill="#666666" fill-opacity="0.8"/>
</svg>
