<svg width="15" height="15" viewBox="0 0 15 15" fill="none" xmlns="http://www.w3.org/2000/svg">
<path d="M0 1.68582C0 1.19717 0.163726 0.794037 0.491164 0.476428C0.818602 0.158804 1.24429 0 1.76819 0C2.28275 0 2.69906 0.156356 3.01715 0.469098C3.34459 0.791603 3.50832 1.21183 3.50832 1.7298C3.50832 2.1989 3.34928 2.5898 3.03118 2.90254C2.70375 3.22505 2.27339 3.3863 1.74012 3.3863H1.72609C1.21153 3.3863 0.795223 3.22505 0.477131 2.90254C0.159039 2.58004 0 2.17446 0 1.68582ZM0.182432 14.5127V4.7203H3.29782V14.5127H0.182432ZM5.02391 14.5127H8.13929V9.0448C8.13929 8.70274 8.17672 8.43887 8.25156 8.2532C8.38253 7.92091 8.58134 7.63994 8.84797 7.41028C9.1146 7.18062 9.44906 7.06579 9.85135 7.06579C10.8992 7.06579 11.4231 7.80364 11.4231 9.27935V14.5127H14.5385V8.89821C14.5385 7.45181 14.211 6.35481 13.5561 5.60719C12.9012 4.85956 12.0359 4.48575 10.96 4.48575C9.75312 4.48575 8.81289 5.02815 8.13929 6.11294V6.14225H8.12526L8.13929 6.11294V4.7203H5.02391C5.04261 5.03303 5.05197 6.00542 5.05197 7.6375C5.05197 9.26957 5.04261 11.5613 5.02391 14.5127Z" fill="white"/>
</svg>
