<svg width="20" height="21" viewBox="0 0 20 21" fill="none" xmlns="http://www.w3.org/2000/svg">
<path d="M0.750092 1.24988L2.83009 1.60988L3.79309 13.0829C3.87009 14.0199 4.65309 14.7389 5.59309 14.7359H16.5021C17.3991 14.7379 18.1601 14.0779 18.2871 13.1899L19.2361 6.63188C19.3421 5.89888 18.8331 5.21888 18.1011 5.11288C18.0371 5.10388 3.16409 5.09888 3.16409 5.09888" stroke="#1A162E" stroke-width="1.5" stroke-linecap="round" stroke-linejoin="round"/>
<path d="M12.1251 8.7948H14.8981" stroke="#1A162E" stroke-width="1.5" stroke-linecap="round" stroke-linejoin="round"/>
<path fill-rule="evenodd" clip-rule="evenodd" d="M5.15438 18.2025C5.45538 18.2025 5.69838 18.4465 5.69838 18.7465C5.69838 19.0475 5.45538 19.2915 5.15438 19.2915C4.85338 19.2915 4.61038 19.0475 4.61038 18.7465C4.61038 18.4465 4.85338 18.2025 5.15438 18.2025Z" fill="#1A162E" stroke="#1A162E" stroke-width="1.5" stroke-linecap="round" stroke-linejoin="round"/>
<path fill-rule="evenodd" clip-rule="evenodd" d="M16.4347 18.2025C16.7357 18.2025 16.9797 18.4465 16.9797 18.7465C16.9797 19.0475 16.7357 19.2915 16.4347 19.2915C16.1337 19.2915 15.8907 19.0475 15.8907 18.7465C15.8907 18.4465 16.1337 18.2025 16.4347 18.2025Z" fill="#1A162E" stroke="#1A162E" stroke-width="1.5" stroke-linecap="round" stroke-linejoin="round"/>
</svg>
