<svg width="123" height="36" viewBox="0 0 123 36" fill="none" xmlns="http://www.w3.org/2000/svg">
<g clip-path="url(#clip0_1763_1924)">
<path fill-rule="evenodd" clip-rule="evenodd" d="M118.136 36H5.12337C2.63094 36 0.601074 33.9711 0.601074 31.5V4.5C0.601074 2.01995 2.63094 0 5.12337 0H118.136C120.626 0 122.658 2.01995 122.658 4.5V31.5C122.658 33.9711 120.626 36 118.136 36Z" fill="black"/>
<path fill-rule="evenodd" clip-rule="evenodd" d="M118.136 0.720449C120.226 0.720449 121.937 2.41945 121.937 4.5V31.5C121.937 33.5805 120.238 35.2796 118.136 35.2796H5.12337C3.03288 35.2796 1.32186 33.5805 1.32186 31.5V4.5C1.32186 2.41945 3.02165 0.720449 5.12337 0.720449C5.12337 0.720449 118.136 0.720449 118.136 0.720449ZM118.136 0H5.12337C2.63094 0 0.601074 2.02893 0.601074 4.5V31.5C0.601074 33.9801 2.63094 36 5.12337 36H118.136C120.626 36 122.658 33.9801 122.658 31.5V4.5C122.658 2.02893 120.626 0 118.136 0Z" fill="#A6A6A6"/>
<path d="M64.9035 11.9086C64.0884 11.9086 63.4013 11.6235 62.8579 11.0624C62.319 10.517 62.0181 9.76518 62.0316 8.9976C62.0316 8.17839 62.31 7.48488 62.8579 6.935C63.3991 6.3739 64.0862 6.08887 64.9013 6.08887C65.7074 6.08887 66.3945 6.3739 66.9469 6.935C67.4947 7.50283 67.7732 8.19635 67.7732 8.9976C67.7642 9.81904 67.4858 10.5126 66.9469 11.0602C66.4057 11.6258 65.7186 11.9086 64.9035 11.9086ZM40.6506 11.9086C39.8535 11.9086 39.1619 11.628 38.596 11.0737C38.0347 10.5215 37.7495 9.82353 37.7495 8.99984C37.7495 8.17615 38.0347 7.47814 38.596 6.92602C39.1507 6.37166 39.8423 6.09111 40.6506 6.09111C41.0458 6.09111 41.4298 6.16967 41.798 6.32902C42.1595 6.48388 42.4537 6.69485 42.6715 6.95296L42.7254 7.01804L42.1169 7.61505L42.054 7.54099C41.7105 7.13251 41.2501 6.93276 40.6416 6.93276C40.0982 6.93276 39.6244 7.12578 39.2337 7.50732C38.8408 7.89111 38.6409 8.39386 38.6409 9.00208C38.6409 9.61031 38.8408 10.1131 39.2337 10.4968C39.6244 10.8784 40.0982 11.0714 40.6416 11.0714C41.2209 11.0714 41.7082 10.8784 42.0877 10.4968C42.3122 10.2724 42.4514 9.95819 42.5008 9.56094H40.5496V8.72154H43.3384L43.3496 8.79785C43.3698 8.93924 43.39 9.08513 43.39 9.21979C43.39 9.9941 43.1565 10.6203 42.6939 11.0826C42.1685 11.6303 41.4814 11.9086 40.6506 11.9086ZM72.8972 11.7896H72.0372L69.4034 7.5769L69.4258 8.3355V11.7874H68.5658V6.21006H69.5471L69.574 6.25271L72.0507 10.2208L72.0283 9.46443V6.21006H72.8972V11.7896V11.7896ZM58.4412 11.7896H57.5699V7.04947H56.0588V6.21006H59.9501V7.04947H58.4389V11.7896H58.4412ZM55.3492 11.7896H54.4802V6.21006H55.3492V11.7896ZM50.4654 11.7896H49.5964V7.04947H48.0852V6.21006H51.9766V7.04947H50.4654V11.7896ZM47.5351 11.7806H44.2029V6.21006H47.5351V7.04947H45.0741V8.58014H47.2948V9.41056H45.0741V10.9412H47.5351V11.7806ZM63.4956 10.4856C63.8841 10.8739 64.3556 11.0692 64.9035 11.0692C65.4671 11.0692 65.9274 10.8784 66.3114 10.4856C66.6931 10.1041 66.8862 9.60358 66.8862 8.99984C66.8862 8.3961 66.6931 7.89336 66.3136 7.51405C65.9252 7.12577 65.4514 6.93051 64.9058 6.93051C64.3421 6.93051 63.8818 7.12129 63.5001 7.51405C63.1184 7.8956 62.9253 8.3961 62.9253 8.99984C62.9253 9.60358 63.1161 10.1063 63.4956 10.4856Z" fill="white"/>
<path fill-rule="evenodd" clip-rule="evenodd" d="M61.9496 19.58C59.8276 19.58 58.1076 21.1892 58.1076 23.4089C58.1076 25.6084 59.8388 27.2378 61.9496 27.2378C64.0715 27.2378 65.7915 25.6174 65.7915 23.4089C65.7915 21.1892 64.0715 19.58 61.9496 19.58ZM61.9496 25.7206C60.7887 25.7206 59.7894 24.76 59.7894 23.3999C59.7894 22.0196 60.7909 21.0792 61.9496 21.0792C63.1104 21.0792 64.1097 22.0196 64.1097 23.3999C64.1119 24.769 63.1104 25.7206 61.9496 25.7206ZM53.5674 19.58C51.4454 19.58 49.7254 21.1892 49.7254 23.4089C49.7254 25.6084 51.4566 27.2378 53.5674 27.2378C55.6893 27.2378 57.4093 25.6174 57.4093 23.4089C57.4093 21.1892 55.687 19.58 53.5674 19.58ZM53.5674 25.7206C52.4065 25.7206 51.4073 24.76 51.4073 23.3999C51.4073 22.0196 52.4087 21.0792 53.5674 21.0792C54.7282 21.0792 55.7275 22.0196 55.7275 23.3999C55.7275 24.769 54.7282 25.7206 53.5674 25.7206ZM43.5931 20.7493V22.3698H47.4845C47.3655 23.2787 47.0646 23.9498 46.6043 24.4099C46.0339 24.98 45.1537 25.5994 43.6021 25.5994C41.2107 25.5994 39.3403 23.6693 39.3403 21.279C39.3403 18.8887 41.2107 16.9585 43.6021 16.9585C44.8933 16.9585 45.8341 17.468 46.5324 18.1189L47.6821 16.9697C46.7121 16.0406 45.4209 15.3291 43.6111 15.3291C40.3305 15.3291 37.5776 17.9999 37.5776 21.27C37.5776 24.5491 40.3283 27.2109 43.6111 27.2109C45.3828 27.2109 46.7121 26.6318 47.7629 25.5411C48.834 24.4705 49.173 22.96 49.173 21.7413C49.173 21.362 49.1439 21.0209 49.0832 20.7313H43.5909C43.5931 20.7291 43.5931 20.7493 43.5931 20.7493ZM84.3904 22.0106C84.0693 21.151 83.0993 19.571 81.1098 19.571C79.1383 19.571 77.4992 21.1219 77.4992 23.3999C77.4992 25.55 79.1204 27.2289 81.3007 27.2289C83.0521 27.2289 84.0715 26.1583 84.4914 25.5298L83.1913 24.659C82.7602 25.2987 82.1607 25.7184 81.3097 25.7184C80.4497 25.7184 79.8479 25.3279 79.4482 24.558L84.57 22.4371C84.57 22.4393 84.3904 22.0106 84.3904 22.0106ZM79.1675 23.2899C79.1271 21.8109 80.3172 21.059 81.1682 21.059C81.8396 21.059 82.3987 21.389 82.5896 21.8693L79.1675 23.2899ZM75.0067 26.9999H76.6886V15.751H75.0067V26.9999ZM72.2449 20.4306H72.1842C71.8047 19.9795 71.084 19.571 70.1633 19.571C68.2525 19.571 66.4921 21.252 66.4921 23.4111C66.4921 25.5613 68.2435 27.2221 70.1633 27.2221C71.0727 27.2221 71.8047 26.8114 72.1842 26.3513H72.2449V26.9012C72.2449 28.3623 71.4634 29.1501 70.2038 29.1501C69.1731 29.1501 68.5332 28.4094 68.2727 27.7899L66.8109 28.4004C67.2308 29.4104 68.3513 30.6605 70.2015 30.6605C72.173 30.6605 73.8436 29.5002 73.8436 26.67V19.7999H72.2538V20.4306C72.2561 20.4306 72.2449 20.4306 72.2449 20.4306ZM70.3138 25.7206C69.1529 25.7206 68.1829 24.751 68.1829 23.4111C68.1829 22.06 69.1529 21.0815 70.3138 21.0815C71.4634 21.0815 72.3549 22.0712 72.3549 23.4111C72.3661 24.751 71.4657 25.7206 70.3138 25.7206ZM92.2651 15.751H88.2435V26.9999H89.9254V22.7401H92.2674C94.1288 22.7401 95.9589 21.3912 95.9589 19.25C95.9589 17.1089 94.1356 15.751 92.2651 15.751ZM92.3145 21.169H89.9231V17.3087H92.3145C93.5742 17.3087 94.286 18.3478 94.286 19.2388C94.286 20.1209 93.5652 21.169 92.3145 21.169ZM102.7 19.5598C101.478 19.5598 100.218 20.1007 99.6975 21.279L101.188 21.8984C101.51 21.279 102.098 21.068 102.72 21.068C103.591 21.068 104.471 21.5887 104.491 22.5179V22.6368C104.191 22.4663 103.53 22.2059 102.74 22.2059C101.13 22.2059 99.4976 23.0857 99.4976 24.7353C99.4976 26.2458 100.818 27.2154 102.289 27.2154C103.418 27.2154 104.04 26.7059 104.429 26.1156H104.489V26.9865H106.11V22.6772C106.11 20.6707 104.619 19.5598 102.7 19.5598ZM102.489 25.7206C101.938 25.7206 101.168 25.4513 101.168 24.76C101.168 23.8892 102.129 23.5593 102.949 23.5593C103.69 23.5593 104.04 23.7186 104.48 23.9386C104.359 24.9486 103.506 25.7116 102.489 25.7206ZM112.025 19.7999L110.094 24.6792H110.033L108.033 19.7999H106.223L109.225 26.6206L107.514 30.4114H109.265L113.884 19.7999H112.025ZM96.8862 26.9999H98.568V15.751H96.8862V26.9999Z" fill="white"/>
<path fill-rule="evenodd" clip-rule="evenodd" d="M9.99636 6.78033C9.73589 7.06087 9.58545 7.48955 9.58545 8.05065V27.9516C9.58545 28.5127 9.73589 28.9414 10.0053 29.2107L10.075 29.2713L21.2303 18.1212V17.8721L10.066 6.71973L9.99636 6.78033Z" fill="url(#paint0_linear_1763_1924)"/>
<path fill-rule="evenodd" clip-rule="evenodd" d="M24.9389 21.8486L21.2183 18.1297V17.8693L24.9389 14.1504L25.0198 14.1998L29.4208 16.7C30.6805 17.4092 30.6805 18.5808 29.4208 19.299L25.0198 21.7993L24.9389 21.8486Z" fill="url(#paint1_linear_1763_1924)"/>
<path fill-rule="evenodd" clip-rule="evenodd" d="M25.022 21.7997L21.2205 18L9.99561 29.2197C10.4065 29.6596 11.0959 29.709 11.8661 29.2803L25.022 21.7997Z" fill="url(#paint2_linear_1763_1924)"/>
<path fill-rule="evenodd" clip-rule="evenodd" d="M25.022 14.2002L11.8661 6.73087C11.0959 6.29097 10.4043 6.35157 9.99561 6.79147L21.2205 17.9999L25.022 14.2002Z" fill="url(#paint3_linear_1763_1924)"/>
<path opacity="0.2" fill-rule="evenodd" clip-rule="evenodd" d="M24.9439 21.7188L11.8778 29.1387C11.148 29.5584 10.4968 29.5292 10.0769 29.1477L10.0073 29.2173L10.0769 29.2779C10.4968 29.6572 11.148 29.6886 11.8778 29.2689L25.0338 21.7995L24.9439 21.7188Z" fill="black"/>
<path opacity="0.12" fill-rule="evenodd" clip-rule="evenodd" d="M29.4223 19.1693L24.9292 21.719L25.01 21.7998L29.4111 19.2995C30.042 18.9404 30.3519 18.4691 30.3519 18C30.3137 18.4309 29.9926 18.8394 29.4223 19.1693Z" fill="black"/>
<path opacity="0.25" fill-rule="evenodd" clip-rule="evenodd" d="M11.8668 6.86106L29.4238 16.8306C29.9942 17.1516 30.3153 17.5713 30.3647 18C30.3647 17.5309 30.0548 17.0596 29.4238 16.7005L11.8668 6.73089C10.6071 6.01044 9.58545 6.61194 9.58545 8.05059V8.18076C9.58545 6.73987 10.6071 6.14959 11.8668 6.86106Z" fill="white"/>
</g>
<defs>
<linearGradient id="paint0_linear_1763_1924" x1="20.2296" y1="7.83594" x2="2.36188" y2="12.599" gradientUnits="userSpaceOnUse">
<stop stop-color="#00A0FF"/>
<stop offset="0.00657" stop-color="#00A1FF"/>
<stop offset="0.2601" stop-color="#00BEFF"/>
<stop offset="0.5122" stop-color="#00D2FF"/>
<stop offset="0.7604" stop-color="#00DFFF"/>
<stop offset="1" stop-color="#00E3FF"/>
</linearGradient>
<linearGradient id="paint1_linear_1763_1924" x1="31.0636" y1="17.9996" x2="9.27627" y2="17.9996" gradientUnits="userSpaceOnUse">
<stop stop-color="#FFE000"/>
<stop offset="0.4087" stop-color="#FFBD00"/>
<stop offset="0.7754" stop-color="#FFA500"/>
<stop offset="1" stop-color="#FF9C00"/>
</linearGradient>
<linearGradient id="paint2_linear_1763_1924" x1="22.9549" y1="20.0676" x2="8.61972" y2="44.2061" gradientUnits="userSpaceOnUse">
<stop stop-color="#FF3A44"/>
<stop offset="1" stop-color="#C31162"/>
</linearGradient>
<linearGradient id="paint3_linear_1763_1924" x1="7.16905" y1="0.160865" x2="13.5646" y2="10.9415" gradientUnits="userSpaceOnUse">
<stop stop-color="#32A071"/>
<stop offset="0.0685" stop-color="#2DA771"/>
<stop offset="0.4762" stop-color="#15CF74"/>
<stop offset="0.8009" stop-color="#06E775"/>
<stop offset="1" stop-color="#00F076"/>
</linearGradient>
<clipPath id="clip0_1763_1924">
<rect width="122.057" height="36" fill="white" transform="translate(0.601074)"/>
</clipPath>
</defs>
</svg>
