<svg width="23" height="22" viewBox="0 0 23 22" fill="none" xmlns="http://www.w3.org/2000/svg">
<path d="M16.9997 2.75H5.99967C3.97384 2.75 2.33301 4.38167 2.33301 6.38917V15.6108C2.33301 17.6183 3.97384 19.25 5.99967 19.25H16.9997C19.0255 19.25 20.6663 17.6183 20.6663 15.6108V6.38917C20.6663 4.38167 19.0255 2.75 16.9997 2.75ZM8.29134 6.5725C9.45551 6.5725 10.4088 7.52583 10.4088 8.69C10.4088 9.85417 9.45551 10.8075 8.29134 10.8075C7.12717 10.8075 6.17384 9.85417 6.17384 8.69C6.17384 7.52583 7.12717 6.5725 8.29134 6.5725ZM11.8388 15.2717C11.7563 15.3633 11.628 15.4183 11.4997 15.4183H5.08301C4.95467 15.4183 4.82634 15.3633 4.74384 15.2717C4.66134 15.18 4.61551 15.0517 4.62467 14.9233C4.78051 13.3833 6.00884 12.1642 7.54884 12.0175C8.03467 11.9717 8.53884 11.9717 9.02467 12.0175C10.5647 12.1642 11.8022 13.3833 11.9488 14.9233C11.9672 15.0517 11.9213 15.18 11.8388 15.2717ZM17.9163 15.3542H16.083C15.7072 15.3542 15.3955 15.0425 15.3955 14.6667C15.3955 14.2908 15.7072 13.9792 16.083 13.9792H17.9163C18.2922 13.9792 18.6038 14.2908 18.6038 14.6667C18.6038 15.0425 18.2922 15.3542 17.9163 15.3542ZM17.9163 11.6875H14.2497C13.8738 11.6875 13.5622 11.3758 13.5622 11C13.5622 10.6242 13.8738 10.3125 14.2497 10.3125H17.9163C18.2922 10.3125 18.6038 10.6242 18.6038 11C18.6038 11.3758 18.2922 11.6875 17.9163 11.6875ZM17.9163 8.02083H13.333C12.9572 8.02083 12.6455 7.70917 12.6455 7.33333C12.6455 6.9575 12.9572 6.64583 13.333 6.64583H17.9163C18.2922 6.64583 18.6038 6.9575 18.6038 7.33333C18.6038 7.70917 18.2922 8.02083 17.9163 8.02083Z" fill="#292D32"/>
</svg>
