<svg width="36" height="36" viewBox="0 0 36 36" fill="none" xmlns="http://www.w3.org/2000/svg">
<rect width="36" height="36" fill="#404B4B"/>
<path d="M11 12.5712C11 12.1158 11.1637 11.74 11.4912 11.444C11.8186 11.148 12.2443 11 12.7682 11C13.2827 11 13.6991 11.1457 14.0172 11.4372C14.3446 11.7378 14.5083 12.1294 14.5083 12.6122C14.5083 13.0494 14.3493 13.4137 14.0312 13.7051C13.7037 14.0057 13.2734 14.156 12.7401 14.156H12.7261C12.2115 14.156 11.7952 14.0057 11.4771 13.7051C11.159 13.4046 11 13.0266 11 12.5712ZM11.1824 24.5257V15.3993H14.2978V24.5257H11.1824ZM16.0239 24.5257H19.1393V19.4297C19.1393 19.1109 19.1767 18.865 19.2516 18.6919C19.3825 18.3822 19.5813 18.1204 19.848 17.9063C20.1146 17.6923 20.4491 17.5853 20.8514 17.5853C21.8992 17.5853 22.4231 18.2729 22.4231 19.6483V24.5257H25.5385V19.2931C25.5385 17.945 25.211 16.9226 24.5561 16.2259C23.9012 15.5291 23.0359 15.1807 21.96 15.1807C20.7531 15.1807 19.8129 15.6862 19.1393 16.6972V16.7245H19.1253L19.1393 16.6972V15.3993H16.0239C16.0426 15.6907 16.052 16.597 16.052 18.1181C16.052 19.6392 16.0426 21.775 16.0239 24.5257Z" fill="white"/>
</svg>
