<svg width="36" height="36" viewBox="0 0 36 36" fill="none" xmlns="http://www.w3.org/2000/svg">
<rect x="-0.000976562" width="36" height="36" fill="#404B4B"/>
<path d="M10.999 12.5712C10.999 12.1158 11.1627 11.74 11.4902 11.444C11.8176 11.148 12.2433 11 12.7672 11C13.2818 11 13.6981 11.1457 14.0162 11.4372C14.3436 11.7378 14.5073 12.1294 14.5073 12.6122C14.5073 13.0494 14.3483 13.4137 14.0302 13.7051C13.7028 14.0057 13.2724 14.156 12.7391 14.156H12.7251C12.2106 14.156 11.7942 14.0057 11.4762 13.7051C11.1581 13.4046 10.999 13.0266 10.999 12.5712ZM11.1815 24.5257V15.3993H14.2968V24.5257H11.1815ZM16.0229 24.5257H19.1383V19.4297C19.1383 19.1109 19.1757 18.865 19.2506 18.6919C19.3816 18.3822 19.5804 18.1204 19.847 17.9063C20.1136 17.6923 20.4481 17.5853 20.8504 17.5853C21.8982 17.5853 22.4221 18.2729 22.4221 19.6483V24.5257H25.5375V19.2931C25.5375 17.945 25.21 16.9226 24.5552 16.2259C23.9003 15.5291 23.0349 15.1807 21.959 15.1807C20.7521 15.1807 19.8119 15.6862 19.1383 16.6972V16.7245H19.1243L19.1383 16.6972V15.3993H16.0229C16.0416 15.6907 16.051 16.597 16.051 18.1181C16.051 19.6392 16.0416 21.775 16.0229 24.5257Z" fill="white"/>
</svg>
