<svg width="30" height="18" viewBox="0 0 30 18" fill="none" xmlns="http://www.w3.org/2000/svg">
<g clip-path="url(#clip0_1763_1977)">
<path d="M18.6962 16.0753H10.8218V1.92383H18.6963L18.6962 16.0753Z" fill="#FF5F00"/>
<path d="M11.3209 9C11.3209 6.12938 12.665 3.57223 14.758 1.92428C13.1737 0.675038 11.2142 -0.00297132 9.19658 9.78876e-06C4.22654 9.78876e-06 0.197754 4.02938 0.197754 9C0.197754 13.9706 4.22654 18 9.19658 18C11.2142 18.003 13.1738 17.325 14.7582 16.0757C12.6653 14.4281 11.3209 11.8708 11.3209 9Z" fill="#EB001B"/>
<path d="M29.3194 9C29.3194 13.9706 25.2906 18 20.3206 18C18.3028 18.003 16.3429 17.325 14.7583 16.0757C16.8519 14.4278 18.196 11.8708 18.196 9C18.196 6.12924 16.8519 3.57223 14.7583 1.92428C16.3429 0.675075 18.3027 -0.00291907 20.3205 9.44732e-06C25.2905 9.44732e-06 29.3193 4.02938 29.3193 9" fill="#F79E1B"/>
</g>
<defs>
<clipPath id="clip0_1763_1977">
<rect width="30" height="18" fill="white" transform="translate(0.000488281)"/>
</clipPath>
</defs>
</svg>
