<svg width="23" height="22" viewBox="0 0 23 22" fill="none" xmlns="http://www.w3.org/2000/svg">
<path d="M11.5 7.10425C9.7675 7.10425 9.4375 7.82841 9.4375 9.16675V9.73508H13.5625V9.16675C13.5625 7.82841 13.2325 7.10425 11.5 7.10425Z" fill="#292D32"/>
<path d="M11.4995 13.8416C12.0564 13.8416 12.5079 13.3902 12.5079 12.8333C12.5079 12.2764 12.0564 11.825 11.4995 11.825C10.9427 11.825 10.4912 12.2764 10.4912 12.8333C10.4912 13.3902 10.9427 13.8416 11.4995 13.8416Z" fill="#292D32"/>
<path d="M11.4997 1.83325C6.43967 1.83325 2.33301 5.93992 2.33301 10.9999C2.33301 16.0599 6.43967 20.1666 11.4997 20.1666C16.5597 20.1666 20.6663 16.0599 20.6663 10.9999C20.6663 5.93992 16.5597 1.83325 11.4997 1.83325ZM16.4313 13.2916C16.4313 15.3083 15.808 15.9316 13.7913 15.9316H9.20801C7.19134 15.9316 6.56801 15.3083 6.56801 13.2916V12.3749C6.56801 10.8074 6.94384 10.0833 8.06217 9.83575V9.16658C8.06217 8.31408 8.06217 5.72909 11.4997 5.72909C14.9372 5.72909 14.9372 8.31408 14.9372 9.16658V9.83575C16.0555 10.0833 16.4313 10.8074 16.4313 12.3749V13.2916Z" fill="#292D32"/>
</svg>
