<svg width="30" height="28" viewBox="0 0 30 28" fill="none" xmlns="http://www.w3.org/2000/svg">
<path d="M17.0832 26.7649V21.738C17.0832 21.0559 17.6337 20.5035 18.3125 20.5035C20.7346 20.5035 22.0522 18.0089 22.2351 13.0845L18.3125 13.0845C17.6338 13.0845 17.0832 12.5312 17.0832 11.8499V1.23531C17.0832 0.553486 17.6337 0.00103569 18.3125 0.00103569L28.7706 0.00103569C29.4492 0.00103569 30 0.55409 30 1.23531V11.85C30 14.2104 29.7627 16.3765 29.2969 18.2894C28.8184 20.2505 28.0839 21.965 27.1142 23.3858C26.1169 24.8458 24.8684 25.9916 23.4054 26.7895C21.9314 27.5925 20.2179 28 18.312 28C17.6338 27.9995 17.0832 27.4465 17.0832 26.7649ZM1.22904 20.503C0.550364 20.503 0 21.0559 0 21.7371L0 26.765C0 27.4465 0.550364 27.999 1.22904 27.999C3.134 27.999 4.84834 27.5914 6.32145 26.7885C7.78519 25.9907 9.03357 24.8459 10.0307 23.3848C11.001 21.964 11.7355 20.2495 12.214 18.2875C12.68 16.3745 12.9168 14.2083 12.9168 11.849L12.9168 1.23427C12.9168 0.55245 12.3659 0 11.6875 0L1.22904 0C0.550364 0 0 0.552968 0 1.23427L0 11.849C0 12.5307 0.550364 13.0835 1.22904 13.0835H5.09654C4.91589 18.0083 3.61724 20.503 1.22904 20.503Z" fill="#F86624"/>
</svg>
