
<svg width="131" height="49" viewBox="0 0 131 49" fill="none" xmlns="http://www.w3.org/2000/svg">
<g clip-path="url(#clip0_234_671)">
<path d="M129.231 42.8883C129.231 45.4172 127.592 47.4644 125.567 47.4644H4.53435C2.50911 47.4644 0.869629 45.4172 0.869629 42.8883V6.03852C0.869629 3.50961 2.50911 1.4624 4.53435 1.4624H125.567C127.592 1.4624 129.231 3.50961 129.231 6.03852V42.8883Z" fill="white"/>
<path d="M125.565 48.5476H4.5328C2.02536 48.5476 0.00012207 46.0187 0.00012207 42.8877V6.03787C0.00012207 2.90684 2.02536 0.37793 4.5328 0.37793H125.565C128.072 0.37793 130.098 2.90684 130.098 6.03787V42.7672C130.098 46.0187 128.072 48.5476 125.565 48.5476Z" fill="#A6A6A6"/>
<path d="M129.231 42.8883C129.231 45.4172 127.592 47.4644 125.567 47.4644H4.53435C2.50911 47.4644 0.869629 45.4172 0.869629 42.8883V6.03852C0.869629 3.50961 2.50911 1.4624 4.53435 1.4624H125.567C127.592 1.4624 129.231 3.50961 129.231 6.03852V42.8883Z" fill="black"/>
<path d="M29.0287 24.2214C29.0287 20.3679 31.5361 18.4411 31.729 18.3206C30.2824 15.6713 27.9679 15.31 27.1963 15.31C25.2675 15.0692 23.4352 16.7551 22.4708 16.7551C21.5064 16.7551 19.9633 15.31 18.4203 15.4305C16.3951 15.4305 14.4663 16.996 13.4054 19.284C11.1873 23.9806 12.8268 30.9652 14.9485 34.8188C16.0093 36.7455 17.263 38.7927 18.8061 38.6723C20.3491 38.5519 20.9277 37.4681 22.8565 37.4681C24.6889 37.4681 25.2675 38.6723 26.907 38.6723C28.5465 38.6723 29.6073 36.7455 30.6682 34.9392C31.9219 32.7715 32.4041 30.7243 32.4041 30.6039C32.3076 30.3631 29.1251 28.7975 29.0287 24.2214ZM25.9426 12.7811C26.8106 11.4565 27.3892 9.65011 27.1963 7.84375C25.9426 7.96417 24.496 8.92757 23.5316 10.1318C22.7601 11.2156 22.085 13.1424 22.2779 14.8283C23.7245 15.0692 25.0747 14.1058 25.9426 12.7811Z" fill="white"/>
<path d="M125.565 0.37793H60.7573L86.121 48.5476H125.565C128.072 48.5476 130.098 46.0187 130.098 42.8877V6.03787C130.098 2.90684 128.072 0.37793 125.565 0.37793Z" fill="url(#paint0_linear_234_671)"/>
<path d="M51.7869 38.3121H49.5688L48.4115 33.6156H44.2646L43.1073 38.3121H40.9856L45.1325 22.2957H47.64L51.7869 38.3121ZM48.0257 31.6888L46.9649 27.474C46.8684 26.9923 46.6756 26.0289 46.2898 24.4634C46.1934 25.1859 46.0005 26.1493 45.7112 27.474L44.5539 31.6888H48.0257ZM62.3953 32.4113C62.3953 34.3381 62.0095 35.9036 61.1416 37.1079C60.37 38.0713 59.4056 38.6734 58.2484 38.6734C56.9946 38.6734 56.1267 38.0713 55.6445 36.9875V43.0087H53.6192V30.605C53.6192 29.4007 53.6192 28.0761 53.5228 26.7514H55.3552L55.4516 28.5578C56.1267 27.2331 57.1875 26.5106 58.5377 26.5106C59.5985 26.5106 60.5629 26.9923 61.238 28.0761C62.0095 29.1599 62.3953 30.605 62.3953 32.4113ZM60.2736 32.5318C60.2736 31.448 60.0807 30.4846 59.695 29.762C59.2128 29.0395 58.6341 28.6782 57.8626 28.6782C57.3804 28.6782 56.8982 28.919 56.5124 29.2803C56.1267 29.762 55.8374 30.2437 55.7409 30.9663C55.6445 31.2071 55.6445 31.448 55.6445 31.6888V33.6156C55.6445 34.4586 55.8374 35.1811 56.2231 35.7832C56.6089 36.3853 57.1875 36.6262 57.8626 36.6262C58.6341 36.6262 59.2128 36.2649 59.695 35.5424C60.0807 34.6994 60.2736 33.736 60.2736 32.5318ZM73.0037 32.4113C73.0037 34.3381 72.6179 35.9036 71.75 37.1079C70.9784 38.0713 70.014 38.6734 68.8568 38.6734C67.603 38.6734 66.7351 38.0713 66.2529 36.9875V43.0087H64.2276V30.605C64.2276 29.4007 64.2276 28.0761 64.1312 26.7514H65.9636L66.06 28.5578C66.7351 27.2331 67.7959 26.5106 69.1461 26.5106C70.2069 26.5106 71.1713 26.9923 71.8464 28.0761C72.6179 29.1599 73.0037 30.605 73.0037 32.4113ZM70.882 32.5318C70.882 31.448 70.6891 30.4846 70.3034 29.762C69.8212 29.0395 69.2425 28.6782 68.471 28.6782C67.9888 28.6782 67.5066 28.919 67.1208 29.2803C66.7351 29.762 66.4458 30.2437 66.3493 30.9663C66.2529 31.3275 66.2529 31.5684 66.2529 31.6888V33.6156C66.2529 34.4586 66.4458 35.1811 66.8315 35.7832C67.2173 36.3853 67.7959 36.6262 68.471 36.6262C69.2425 36.6262 69.8212 36.2649 70.3034 35.5424C70.6891 34.6994 70.882 33.736 70.882 32.5318ZM84.8658 33.8564C84.8658 35.1811 84.48 36.3853 83.7085 37.2283C82.8405 38.1917 81.6833 38.6734 80.2367 38.6734C78.8865 38.6734 77.7292 38.3121 76.9577 37.71L77.4399 35.5424C78.3079 36.2649 79.3687 36.5058 80.4296 36.5058C81.2011 36.5058 81.7797 36.2649 82.2619 35.9036C82.6477 35.422 82.937 34.9403 82.937 34.0973C82.937 33.4952 82.7441 32.893 82.3583 32.4113C81.9726 31.9297 81.3939 31.5684 80.6224 31.2071C78.4043 30.1233 77.247 28.6782 77.247 26.631C77.247 25.3063 77.6328 24.2225 78.4043 23.3795C79.1758 22.5366 80.2367 22.1753 81.5868 22.1753C82.7441 22.1753 83.7085 22.4161 84.48 22.8978L83.9014 24.945C83.1299 24.4634 82.3583 24.2225 81.3939 24.2225C80.6224 24.2225 80.1402 24.4634 79.658 24.945C79.2723 25.3063 79.1758 25.788 79.1758 26.3901C79.1758 26.9923 79.3687 27.5944 79.7545 27.9557C80.1402 28.3169 80.7189 28.7986 81.5868 29.1599C82.6477 29.762 83.5156 30.3641 83.9978 31.0867C84.6729 31.8092 84.8658 32.7726 84.8658 33.8564ZM91.713 28.6782H89.4949V34.3381C89.4949 35.7832 89.8807 36.5058 90.6522 36.5058C91.0379 36.5058 91.3273 36.5058 91.5201 36.3853L91.6166 38.3121C91.2308 38.553 90.6522 38.553 89.9771 38.553C89.2056 38.553 88.5305 38.1917 88.0483 37.5896C87.5661 36.9875 87.3732 35.9036 87.3732 34.4586V28.6782H86.0231V26.7514H87.3732V24.5838L89.3985 23.8612V26.7514H91.6166L91.713 28.6782ZM101.936 32.4113C101.936 34.2177 101.55 35.6628 100.682 36.7466C99.814 37.9509 98.6567 38.553 97.3065 38.553C95.9564 38.553 94.8955 37.9509 94.0276 36.867C93.2561 35.7832 92.7739 34.3381 92.7739 32.6522C92.7739 30.8458 93.1596 29.4007 94.0276 28.1965C94.8955 27.1127 95.9564 26.5106 97.403 26.5106C98.7531 26.5106 99.814 27.1127 100.682 28.1965C101.55 29.2803 101.936 30.7254 101.936 32.4113ZM99.814 32.5318C99.814 31.448 99.6211 30.605 99.2353 29.762C98.8496 28.7986 98.1745 28.4373 97.403 28.4373C96.535 28.4373 95.9564 28.919 95.4742 29.762C95.0884 30.4846 94.8955 31.448 94.8955 32.5318C94.8955 33.6156 95.0884 34.4586 95.4742 35.3015C95.9564 36.2649 96.535 36.6262 97.3065 36.6262C98.0781 36.6262 98.7531 36.1445 99.1389 35.1811C99.6211 34.4586 99.814 33.6156 99.814 32.5318ZM108.59 29.0395C108.397 29.0395 108.204 28.919 107.915 28.919C107.143 28.919 106.661 29.2803 106.275 30.0029C105.89 30.605 105.793 31.3275 105.793 32.2909V38.3121H103.768V30.3641C103.768 29.1599 103.768 27.9557 103.672 26.7514H105.504L105.6 28.919H105.697C105.89 28.1965 106.275 27.5944 106.758 27.1127C107.143 26.7514 107.722 26.5106 108.204 26.5106C108.397 26.5106 108.59 26.5106 108.686 26.5106L108.59 29.0395ZM117.848 32.0501C117.848 32.4113 117.848 32.7726 117.752 33.2543H111.58C111.58 34.3381 111.869 35.3015 112.448 35.9036C112.93 36.3853 113.605 36.7466 114.473 36.7466C115.341 36.7466 116.209 36.6262 116.98 36.1445L117.27 37.9509C116.402 38.4326 115.341 38.6734 114.184 38.6734C112.737 38.6734 111.58 38.1917 110.808 37.1079C110.037 36.0241 109.554 34.579 109.554 32.893C109.554 31.2071 109.94 29.6416 110.712 28.5578C111.483 27.3535 112.544 26.7514 113.991 26.7514C115.341 26.7514 116.305 27.3535 116.98 28.5578C117.559 29.2803 117.848 30.605 117.848 32.0501ZM115.823 31.3275C115.823 30.605 115.727 29.8824 115.437 29.4007C115.051 28.6782 114.569 28.3169 113.798 28.3169C113.123 28.3169 112.544 28.6782 112.158 29.4007C111.773 30.0029 111.58 30.605 111.58 31.448L115.823 31.3275Z" fill="white"/>
<path d="M43.5902 16.6349C43.0115 16.6349 42.5293 16.6349 42.1436 16.5145V8.80738C42.7222 8.68696 43.3008 8.68696 43.8795 8.68696C46.194 8.68696 47.3513 10.132 47.3513 12.5405C47.3513 15.1899 46.0012 16.6349 43.5902 16.6349ZM43.9759 9.65035C43.6866 9.65035 43.3973 9.65035 43.2044 9.77077V15.6716C43.3008 15.6716 43.5902 15.6716 43.8795 15.6716C45.4225 15.6716 46.2905 14.5877 46.2905 12.5405C46.194 10.6137 45.4225 9.65035 43.9759 9.65035ZM50.7267 16.6349C49.3766 16.6349 48.5086 15.4307 48.5086 13.7448C48.5086 11.9384 49.3766 10.7342 50.7267 10.7342C52.0769 10.7342 52.9448 11.9384 52.9448 13.6243C52.9448 15.4307 52.0769 16.6349 50.7267 16.6349ZM50.7267 11.6976C49.9552 11.6976 49.5694 12.5405 49.5694 13.7448C49.5694 14.949 50.0516 15.792 50.7267 15.792C51.4018 15.792 51.884 14.8286 51.884 13.7448C51.884 12.5405 51.4018 11.6976 50.7267 11.6976ZM60.5636 10.8546L59.117 16.5145H58.1526L57.574 14.106C57.3811 13.5039 57.2846 12.9018 57.1882 12.2997C57.0918 12.9018 56.9953 13.5039 56.8024 14.106L56.1274 16.5145H55.163L53.8128 10.8546H54.9701L55.4523 13.5039C55.5487 14.106 55.6452 14.7082 55.7416 15.3103C55.838 14.8286 55.9345 14.2265 56.1274 13.5039L56.8024 10.7342H57.6704L58.249 13.3835C58.4419 13.9856 58.5384 14.7082 58.6348 15.3103C58.7312 14.7082 58.8277 14.106 58.9241 13.3835L59.5028 10.7342L60.5636 10.8546ZM65.7713 16.5145H64.8069V13.2631C64.8069 12.2997 64.5176 11.6976 63.8426 11.6976C63.2639 11.6976 62.8781 12.2997 62.8781 13.1426V16.5145H61.9137V12.4201C61.9137 11.9384 61.9137 11.3363 61.9137 10.8546H62.6853V11.6976C62.9746 11.0954 63.5532 10.7342 64.1319 10.7342C65.0963 10.7342 65.6749 11.6976 65.6749 13.1426L65.7713 16.5145ZM68.5681 16.5145H67.6037V8.32568H68.5681V16.5145ZM72.2328 16.6349C70.8827 16.6349 70.0147 15.4307 70.0147 13.7448C70.0147 11.9384 70.8827 10.7342 72.2328 10.7342C73.583 10.7342 74.451 11.9384 74.451 13.6243C74.5474 15.4307 73.583 16.6349 72.2328 16.6349ZM72.3293 11.6976C71.5578 11.6976 71.172 12.5405 71.172 13.7448C71.172 14.949 71.6542 15.792 72.3293 15.792C73.0044 15.792 73.4865 14.8286 73.4865 13.7448C73.4865 12.5405 73.0044 11.6976 72.3293 11.6976ZM78.5014 16.5145L78.405 15.9124C78.1157 16.3941 77.6335 16.6349 77.0548 16.6349C76.2833 16.6349 75.7047 15.9124 75.7047 14.949C75.7047 13.5039 76.6691 12.7814 78.405 12.7814V12.661C78.405 11.9384 78.1157 11.5771 77.4406 11.5771C76.9584 11.5771 76.5726 11.6976 76.2833 12.0588L75.994 11.2159C76.3798 10.8546 76.9584 10.7342 77.537 10.7342C78.6943 10.7342 79.3694 11.4567 79.3694 13.1426V15.1899C79.3694 15.792 79.3694 16.1533 79.4658 16.5145H78.5014ZM78.3085 13.7448C77.1513 13.7448 76.6691 14.106 76.6691 14.949C76.6691 15.5511 76.9584 15.792 77.3441 15.792C77.8263 15.792 78.3085 15.3103 78.3085 14.5877V13.7448ZM84.2878 16.5145V15.5511C83.9985 16.2737 83.5163 16.6349 82.8412 16.6349C81.7804 16.6349 80.9124 15.4307 80.9124 13.7448C80.9124 11.9384 81.7804 10.7342 82.9377 10.7342C83.5163 10.7342 83.9985 10.975 84.1914 11.4567V8.32568H85.1558V15.0694C85.1558 15.6716 85.1558 16.1533 85.1558 16.6349L84.2878 16.5145ZM84.0949 13.2631C84.0949 12.4201 83.7092 11.818 83.0341 11.818C82.2626 11.818 81.7804 12.661 81.7804 13.8652C81.7804 15.0694 82.2626 15.792 82.9377 15.792C83.6128 15.792 83.9985 15.0694 83.9985 14.2265L84.0949 13.2631ZM91.5208 16.6349C90.1707 16.6349 89.3027 15.4307 89.3027 13.7448C89.3027 11.9384 90.1707 10.7342 91.5208 10.7342C92.871 10.7342 93.7389 11.9384 93.7389 13.6243C93.8354 15.4307 92.871 16.6349 91.5208 16.6349ZM91.5208 11.6976C90.7493 11.6976 90.3635 12.5405 90.3635 13.7448C90.3635 14.949 90.8458 15.792 91.5208 15.792C92.1959 15.792 92.6781 14.8286 92.6781 13.7448C92.7745 12.5405 92.2924 11.6976 91.5208 11.6976ZM99.236 16.5145H98.2716V13.2631C98.2716 12.2997 97.9823 11.6976 97.3072 11.6976C96.7286 11.6976 96.3428 12.2997 96.3428 13.1426V16.5145H95.3784V12.4201C95.3784 11.9384 95.3784 11.3363 95.3784 10.8546H96.2464V11.6976C96.5357 11.0954 97.1144 10.7342 97.693 10.7342C98.6574 10.7342 99.236 11.6976 99.236 13.1426V16.5145ZM105.987 11.818H104.83V14.5877C104.83 15.3103 105.022 15.6716 105.408 15.6716C105.601 15.6716 105.698 15.6716 105.89 15.6716V16.6349C105.698 16.7554 105.408 16.7554 105.119 16.7554C104.347 16.7554 103.865 16.1533 103.865 14.8286V11.818H103.19V10.8546H103.865V9.8912L104.83 9.52992V10.975H105.987V11.818ZM111.387 16.5145H110.423V13.2631C110.423 12.2997 110.134 11.6976 109.459 11.6976C108.976 11.6976 108.494 12.1793 108.494 13.0222V16.3941H107.53V8.32568H108.494V11.6976C108.784 11.0954 109.266 10.7342 109.844 10.7342C110.809 10.7342 111.387 11.6976 111.387 13.1426V16.5145ZM116.885 13.9856H113.798C113.798 15.0694 114.377 15.6716 115.245 15.6716C115.727 15.6716 116.113 15.5511 116.499 15.4307L116.692 16.2737C116.306 16.5145 115.727 16.6349 115.149 16.6349C113.702 16.6349 112.931 15.5511 112.931 13.7448C112.931 12.0588 113.798 10.7342 115.052 10.7342C116.209 10.7342 116.981 11.818 116.981 13.3835C116.885 13.6243 116.885 13.8652 116.885 13.9856ZM115.92 13.1426C115.92 12.2997 115.534 11.6976 114.956 11.6976C114.377 11.6976 113.895 12.2997 113.895 13.1426H115.92Z" fill="white"/>
</g>
<defs>
<linearGradient id="paint0_linear_234_671" x1="95.4383" y1="48.6631" x2="95.4383" y2="-646.229" gradientUnits="userSpaceOnUse">
<stop stop-color="#1A1A1A" stop-opacity="0.1"/>
<stop offset="0.123" stop-color="#212121" stop-opacity="0.151"/>
<stop offset="0.308" stop-color="#353535" stop-opacity="0.227"/>
<stop offset="0.532" stop-color="#575757" stop-opacity="0.318"/>
<stop offset="0.783" stop-color="#858585" stop-opacity="0.421"/>
<stop offset="1" stop-color="#B3B3B3" stop-opacity="0.51"/>
</linearGradient>
<clipPath id="clip0_234_671">
<rect width="130.124" height="48.1564" fill="white" transform="translate(0.00012207 0.37793)"/>
</clipPath>
</defs>
</svg>
