<svg width="132" height="36" viewBox="0 0 132 36" fill="none" xmlns="http://www.w3.org/2000/svg">
<rect width="36" height="36" fill="#005D63"/>
<path d="M16.6036 24.4534V17.7969H18.6516L18.9231 15.4541H16.6036L16.6071 14.2815C16.6071 13.6704 16.6704 13.3432 17.6283 13.3432H18.9087V11H16.8603C14.3997 11 13.5338 12.1364 13.5338 14.0479V15.4543H12V17.7973H13.5338V24.359C14.1314 24.4681 14.7491 24.5257 15.3816 24.5257C15.7902 24.5258 16.1984 24.5016 16.6036 24.4534Z" fill="white"/>
<rect x="48" width="36" height="36" fill="#404B4B"/>
<path d="M59 12.5712C59 12.1158 59.1637 11.74 59.4912 11.444C59.8186 11.148 60.2443 11 60.7682 11C61.2827 11 61.6991 11.1457 62.0172 11.4372C62.3446 11.7378 62.5083 12.1294 62.5083 12.6122C62.5083 13.0494 62.3493 13.4137 62.0312 13.7051C61.7037 14.0057 61.2734 14.156 60.7401 14.156H60.7261C60.2115 14.156 59.7952 14.0057 59.4771 13.7051C59.159 13.4046 59 13.0266 59 12.5712ZM59.1824 24.5257V15.3993H62.2978V24.5257H59.1824ZM64.0239 24.5257H67.1393V19.4297C67.1393 19.1109 67.1767 18.865 67.2516 18.6919C67.3825 18.3822 67.5813 18.1204 67.848 17.9063C68.1146 17.6923 68.4491 17.5853 68.8514 17.5853C69.8992 17.5853 70.4231 18.2729 70.4231 19.6483V24.5257H73.5385V19.2931C73.5385 17.945 73.211 16.9226 72.5561 16.2259C71.9012 15.5291 71.0359 15.1807 69.96 15.1807C68.7531 15.1807 67.8129 15.6862 67.1393 16.6972V16.7245H67.1253L67.1393 16.6972V15.3993H64.0239C64.0426 15.6907 64.052 16.597 64.052 18.1181C64.052 19.6392 64.0426 21.775 64.0239 24.5257Z" fill="white"/>
<rect x="96" width="36" height="36" fill="#404B4B"/>
<path d="M123 11.6012C122.331 11.8728 121.617 12.0528 120.874 12.1402C121.639 11.7178 122.223 11.054 122.497 10.2539C121.784 10.6472 120.996 10.925 120.157 11.08C119.48 10.4131 118.515 10 117.462 10C115.419 10 113.774 11.5336 113.774 13.4137C113.774 13.6842 113.799 13.9443 113.859 14.1919C110.792 14.0536 108.077 12.6937 106.253 10.6222C105.935 11.133 105.748 11.7178 105.748 12.3472C105.748 13.5292 106.406 14.5769 107.387 15.1835C106.794 15.1731 106.213 15.0139 105.72 14.7631C105.72 14.7735 105.72 14.7871 105.72 14.8006C105.72 16.4591 106.999 17.8366 108.676 18.1539C108.376 18.2299 108.049 18.2663 107.709 18.2663C107.473 18.2663 107.234 18.2538 107.01 18.208C107.488 19.5596 108.845 20.5532 110.459 20.5855C109.203 21.4938 107.609 22.041 105.883 22.041C105.581 22.041 105.29 22.0285 105 21.9942C106.635 22.9691 108.572 23.5257 110.661 23.5257C117.451 23.5257 121.164 18.3235 121.164 13.8143C121.164 13.6634 121.158 13.5177 121.15 13.3731C121.883 12.8924 122.498 12.2921 123 11.6012Z" fill="white"/>
</svg>
