<svg width="106" height="17" viewBox="0 0 106 17" fill="none" xmlns="http://www.w3.org/2000/svg">
<path d="M9 0L12 5.36703L18 6.03791L13.88 10.1705L15 16.1011L9 13.4176L3 16.1011L4.13 10.1705L0 6.03791L6 5.36703L9 0Z" fill="#FFD44D"/>
<path d="M31 0L34 5.36703L40 6.03791L35.88 10.1705L37 16.1011L31 13.4176L25 16.1011L26.13 10.1705L22 6.03791L28 5.36703L31 0Z" fill="#FFD44D"/>
<path d="M53 0L56 5.36703L62 6.03791L57.88 10.1705L59 16.1011L53 13.4176L47 16.1011L48.13 10.1705L44 6.03791L50 5.36703L53 0Z" fill="#FFD44D"/>
<path d="M75 0L78 5.36703L84 6.03791L79.88 10.1705L81 16.1011L75 13.4176L69 16.1011L70.13 10.1705L66 6.03791L72 5.36703L75 0Z" fill="#FFD44D"/>
<path d="M97 0L100 5.36703L106 6.03791L101.88 10.1705L103 16.1011L97 13.4176L91 16.1011L92.13 10.1705L88 6.03791L94 5.36703L97 0Z" fill="#FFD44D"/>
</svg>
