<svg width="32" height="19" viewBox="0 0 32 19" fill="none" xmlns="http://www.w3.org/2000/svg">
<path d="M10.4064 1.23905C10.594 0.883476 11.1033 0.883475 11.2909 1.23905L13.7904 5.97655C13.8627 6.11367 13.9946 6.20947 14.1474 6.23591L19.4254 7.14914C19.8215 7.21768 19.9789 7.702 19.6987 7.9903L15.9655 11.8315C15.8574 11.9426 15.8071 12.0977 15.8291 12.2511L16.5916 17.553C16.6488 17.951 16.2368 18.2503 15.8761 18.0729L11.0693 15.7094C10.9301 15.641 10.7671 15.641 10.628 15.7094L5.82121 18.0729C5.46044 18.2503 5.04845 17.951 5.10568 17.553L5.86814 12.2511C5.89021 12.0977 5.83984 11.9426 5.73179 11.8315L1.99856 7.9903C1.71836 7.702 1.87573 7.21768 2.27187 7.14914L7.5499 6.23591C7.70266 6.20947 7.83453 6.11367 7.90687 5.97655L10.4064 1.23905Z" fill="#FFCA0E"/>
</svg>
