<svg width="131" height="49" viewBox="0 0 131 49" fill="none" xmlns="http://www.w3.org/2000/svg">
<g clip-path="url(#clip0_234_681)">
<path fill-rule="evenodd" clip-rule="evenodd" d="M126.161 48.5343H5.2265C2.55936 48.5343 0.387207 45.8203 0.387207 42.5148V6.39748C0.387207 3.07997 2.55936 0.37793 5.2265 0.37793H126.161C128.826 0.37793 131 3.07997 131 6.39748V42.5148C131 45.8203 128.826 48.5343 126.161 48.5343Z" fill="black"/>
<path fill-rule="evenodd" clip-rule="evenodd" d="M126.161 1.34166C128.398 1.34166 130.229 3.61438 130.229 6.39748V42.5148C130.229 45.2979 128.41 47.5706 126.161 47.5706H5.2265C2.98947 47.5706 1.15851 45.2979 1.15851 42.5148V6.39748C1.15851 3.61438 2.97745 1.34166 5.2265 1.34166H126.161ZM126.161 0.37793H5.2265C2.55936 0.37793 0.387207 3.09198 0.387207 6.39748V42.5148C0.387207 45.8323 2.55936 48.5343 5.2265 48.5343H126.161C128.826 48.5343 131 45.8323 131 42.5148V6.39748C131 3.09198 128.826 0.37793 126.161 0.37793Z" fill="#A6A6A6"/>
<path d="M69.197 16.3078C68.3248 16.3078 67.5895 15.9265 67.0081 15.176C66.4314 14.4464 66.1094 13.4407 66.1238 12.4139C66.1238 11.3181 66.4218 10.3904 67.0081 9.65481C67.5871 8.90424 68.3224 8.52295 69.1946 8.52295C70.0573 8.52295 70.7925 8.90424 71.3836 9.65481C71.9699 10.4144 72.2678 11.3421 72.2678 12.4139C72.2582 13.5127 71.9603 14.4404 71.3836 15.173C70.8045 15.9296 70.0693 16.3078 69.197 16.3078ZM43.2441 16.3078C42.3911 16.3078 41.651 15.9326 41.0455 15.191C40.4448 14.4524 40.1396 13.5187 40.1396 12.4169C40.1396 11.3151 40.4448 10.3814 41.0455 9.6428C41.639 8.90124 42.3791 8.52595 43.2441 8.52595C43.667 8.52595 44.0779 8.63103 44.4719 8.84419C44.8588 9.05135 45.1736 9.33356 45.4066 9.67882L45.4643 9.76589L44.8131 10.5645L44.7459 10.4654C44.3782 9.91901 43.8857 9.6518 43.2345 9.6518C42.653 9.6518 42.146 9.91 41.7279 10.4204C41.3074 10.9338 41.0936 11.6063 41.0936 12.4199C41.0936 13.2335 41.3074 13.906 41.7279 14.4194C42.146 14.9298 42.653 15.188 43.2345 15.188C43.8544 15.188 44.3758 14.9298 44.7819 14.4194C45.0222 14.1192 45.1712 13.6989 45.224 13.1675H43.136V12.0446H46.1203L46.1323 12.1467C46.1539 12.3358 46.1755 12.531 46.1755 12.7111C46.1755 13.7469 45.9257 14.5845 45.4307 15.203C44.8684 15.9356 44.1331 16.3078 43.2441 16.3078ZM77.7511 16.1487H76.8308L74.0123 10.5135L74.0363 11.5282V16.1457H73.116V8.68507H74.1661L74.1949 8.74212L76.8452 14.0501L76.8212 13.0384V8.68507H77.7511V16.1487ZM62.2817 16.1487H61.3494V9.80792H59.7323V8.68507H63.8964V9.80792H62.2793V16.1487H62.2817ZM58.973 16.1487H58.0431V8.68507H58.973V16.1487ZM53.7469 16.1487H52.817V9.80792H51.1999V8.68507H55.364V9.80792H53.7469V16.1487ZM50.6112 16.1367H47.0454V8.68507H50.6112V9.80792H47.9777V11.8555H50.3541V12.9663H47.9777V15.0139H50.6112V16.1367ZM67.6905 14.4044C68.1062 14.9238 68.6108 15.185 69.197 15.185C69.8001 15.185 70.2927 14.9298 70.7036 14.4044C71.1121 13.894 71.3187 13.2245 71.3187 12.4169C71.3187 11.6093 71.1121 10.9368 70.706 10.4294C70.2903 9.91 69.7833 9.6488 69.1994 9.6488C68.5963 9.6488 68.1038 9.90399 67.6953 10.4294C67.2868 10.9398 67.0801 11.6093 67.0801 12.4169C67.0801 13.2245 67.2844 13.897 67.6905 14.4044Z" fill="white"/>
<path fill-rule="evenodd" clip-rule="evenodd" d="M66.036 26.5696C63.7653 26.5696 61.9247 28.7222 61.9247 31.6915C61.9247 34.6337 63.7773 36.8133 66.036 36.8133C68.3067 36.8133 70.1472 34.6457 70.1472 31.6915C70.1472 28.7222 68.3067 26.5696 66.036 26.5696ZM66.036 34.7838C64.7937 34.7838 63.7245 33.4988 63.7245 31.6795C63.7245 29.8331 64.7961 28.5751 66.036 28.5751C67.2782 28.5751 68.3475 29.8331 68.3475 31.6795C68.3499 33.5108 67.2782 34.7838 66.036 34.7838ZM57.0662 26.5696C54.7956 26.5696 52.955 28.7222 52.955 31.6915C52.955 34.6337 54.8076 36.8133 57.0662 36.8133C59.3369 36.8133 61.1775 34.6457 61.1775 31.6915C61.1775 28.7222 59.3345 26.5696 57.0662 26.5696ZM57.0662 34.7838C55.824 34.7838 54.7547 33.4988 54.7547 31.6795C54.7547 29.8331 55.8264 28.5751 57.0662 28.5751C58.3085 28.5751 59.3777 29.8331 59.3777 31.6795C59.3777 33.5108 58.3085 34.7838 57.0662 34.7838ZM46.3929 28.1338V30.3014H50.557C50.4296 31.5173 50.1076 32.415 49.6151 33.0305C49.0047 33.7931 48.0628 34.6217 46.4025 34.6217C43.8435 34.6217 41.8419 32.0397 41.8419 28.8423C41.8419 25.6449 43.8435 23.0629 46.4025 23.0629C47.7841 23.0629 48.7909 23.7445 49.5382 24.6151L50.7684 23.078C49.7304 21.835 48.3488 20.8833 46.4121 20.8833C42.9016 20.8833 39.9557 24.456 39.9557 28.8303C39.9557 33.2166 42.8992 36.7773 46.4121 36.7773C48.3079 36.7773 49.7304 36.0027 50.8549 34.5436C52.0011 33.1115 52.3639 31.091 52.3639 29.4608C52.3639 28.9534 52.3327 28.4971 52.2678 28.1098H46.3905C46.3929 28.1068 46.3929 28.1338 46.3929 28.1338ZM90.0498 29.8211C89.7062 28.6712 88.6682 26.5576 86.5393 26.5576C84.4296 26.5576 82.6756 28.6322 82.6756 31.6795C82.6756 34.5556 84.4104 36.8013 86.7435 36.8013C88.6177 36.8013 89.7086 35.3693 90.158 34.5286L88.7667 33.3637C88.3054 34.2194 87.6638 34.7808 86.7532 34.7808C85.8329 34.7808 85.1889 34.2584 84.7612 33.2286L90.2421 30.3915C90.2421 30.3945 90.0498 29.8211 90.0498 29.8211ZM84.4608 31.5324C84.4176 29.5539 85.6911 28.5481 86.6018 28.5481C87.3202 28.5481 87.9185 28.9894 88.1228 29.6319L84.4608 31.5324ZM80.0084 36.4951H81.8081V21.4477H80.0084V36.4951ZM77.0529 27.7075H76.9881C76.582 27.104 75.8107 26.5576 74.8255 26.5576C72.7807 26.5576 70.8969 28.8063 70.8969 31.6945C70.8969 34.5707 72.7711 36.7923 74.8255 36.7923C75.7987 36.7923 76.582 36.2429 76.9881 35.6274H77.0529V36.363C77.0529 38.3175 76.2168 39.3713 74.8688 39.3713C73.7659 39.3713 73.0811 38.3805 72.8023 37.5519L71.2381 38.3685C71.6874 39.7195 72.8864 41.3918 74.8664 41.3918C76.9761 41.3918 78.7638 39.8396 78.7638 36.0538V26.8638H77.0625V27.7075C77.065 27.7075 77.0529 27.7075 77.0529 27.7075ZM74.9865 34.7838C73.7442 34.7838 72.7062 33.4868 72.7062 31.6945C72.7062 29.8871 73.7442 28.5781 74.9865 28.5781C76.2168 28.5781 77.1707 29.9021 77.1707 31.6945C77.1827 33.4868 76.2192 34.7838 74.9865 34.7838ZM98.4765 21.4477H94.1731V36.4951H95.9728V30.7968H98.479C100.471 30.7968 102.429 28.9924 102.429 26.1283C102.429 23.2641 100.478 21.4477 98.4765 21.4477ZM98.5294 28.6952H95.9704V23.5313H98.5294C99.8774 23.5313 100.639 24.9214 100.639 26.1133C100.639 27.2931 99.8678 28.6952 98.5294 28.6952ZM109.642 26.5426C108.335 26.5426 106.987 27.2661 106.43 28.8423L108.025 29.6709C108.369 28.8423 108.999 28.5601 109.664 28.5601C110.596 28.5601 111.538 29.2566 111.56 30.4996V30.6587C111.238 30.4305 110.532 30.0823 109.686 30.0823C107.963 30.0823 106.216 31.2591 106.216 33.4658C106.216 35.4863 107.629 36.7833 109.203 36.7833C110.411 36.7833 111.077 36.1018 111.493 35.3122H111.558V36.4771H113.292V30.7127C113.292 28.0287 111.697 26.5426 109.642 26.5426ZM109.417 34.7838C108.828 34.7838 108.004 34.4235 108.004 33.4988C108.004 32.334 109.032 31.8926 109.909 31.8926C110.702 31.8926 111.077 32.1058 111.548 32.4C111.418 33.751 110.505 34.7718 109.417 34.7838ZM119.621 26.8638L117.555 33.3908H117.49L115.349 26.8638H113.413L116.625 35.9877L114.794 41.0586H116.668L121.611 26.8638H119.621ZM103.422 36.4951H105.221V21.4477H103.422V36.4951Z" fill="white"/>
<path fill-rule="evenodd" clip-rule="evenodd" d="M10.4411 9.44776C10.1623 9.82304 10.0013 10.3965 10.0013 11.147V37.7682C10.0013 38.5187 10.1623 39.0922 10.4507 39.4524L10.5252 39.5335L22.4624 24.6182V24.285L10.5155 9.3667L10.4411 9.44776Z" fill="url(#paint0_linear_234_681)"/>
<path fill-rule="evenodd" clip-rule="evenodd" d="M26.4311 29.6044L22.4496 24.6297V24.2814L26.4311 19.3066L26.5176 19.3727L31.2271 22.7172C32.5751 23.6659 32.5751 25.2331 31.2271 26.1938L26.5176 29.5384L26.4311 29.6044Z" fill="url(#paint1_linear_234_681)"/>
<path fill-rule="evenodd" clip-rule="evenodd" d="M26.52 29.5389L22.452 24.4561L10.4403 39.4644C10.88 40.0528 11.6177 40.1189 12.4419 39.5455L26.52 29.5389Z" fill="url(#paint2_linear_234_681)"/>
<path fill-rule="evenodd" clip-rule="evenodd" d="M26.52 19.3734L12.4419 9.38189C11.6177 8.79345 10.8776 8.87451 10.4403 9.46296L22.452 24.4563L26.52 19.3734Z" fill="url(#paint3_linear_234_681)"/>
<path opacity="0.2" fill-rule="evenodd" clip-rule="evenodd" d="M26.4364 29.4307L12.4543 39.3562C11.6734 39.9176 10.9766 39.8786 10.5272 39.3682L10.4528 39.4613L10.5272 39.5423C10.9766 40.0497 11.6734 40.0917 12.4543 39.5303L26.5325 29.5387L26.4364 29.4307Z" fill="black"/>
<path opacity="0.12" fill-rule="evenodd" clip-rule="evenodd" d="M31.2287 26.0202L26.4207 29.4308L26.5072 29.5389L31.2167 26.1944C31.8919 25.714 32.2235 25.0835 32.2235 24.4561C32.1826 25.0325 31.839 25.5789 31.2287 26.0202Z" fill="black"/>
<path opacity="0.25" fill-rule="evenodd" clip-rule="evenodd" d="M12.4426 9.5559L31.2303 22.892C31.8406 23.3213 32.1842 23.8827 32.2371 24.4562C32.2371 23.8287 31.9055 23.1982 31.2303 22.7178L12.4426 9.38177C11.0946 8.41804 10.0013 9.22265 10.0013 11.1471V11.3212C10.0013 9.39378 11.0946 8.60418 12.4426 9.5559Z" fill="white"/>
</g>
<defs>
<linearGradient id="paint0_linear_234_681" x1="21.3917" y1="10.8598" x2="1.80349" y2="15.037" gradientUnits="userSpaceOnUse">
<stop stop-color="#00A0FF"/>
<stop offset="0.00657" stop-color="#00A1FF"/>
<stop offset="0.2601" stop-color="#00BEFF"/>
<stop offset="0.5122" stop-color="#00D2FF"/>
<stop offset="0.7604" stop-color="#00DFFF"/>
<stop offset="1" stop-color="#00E3FF"/>
</linearGradient>
<linearGradient id="paint1_linear_234_681" x1="32.985" y1="24.4556" x2="9.67051" y2="24.4556" gradientUnits="userSpaceOnUse">
<stop stop-color="#FFE000"/>
<stop offset="0.4087" stop-color="#FFBD00"/>
<stop offset="0.7754" stop-color="#FFA500"/>
<stop offset="1" stop-color="#FF9C00"/>
</linearGradient>
<linearGradient id="paint2_linear_234_681" x1="24.308" y1="27.2218" x2="3.4037" y2="55.3807" gradientUnits="userSpaceOnUse">
<stop stop-color="#FF3A44"/>
<stop offset="1" stop-color="#C31162"/>
</linearGradient>
<linearGradient id="paint3_linear_234_681" x1="7.41562" y1="0.593337" x2="16.7437" y2="13.172" gradientUnits="userSpaceOnUse">
<stop stop-color="#32A071"/>
<stop offset="0.0685" stop-color="#2DA771"/>
<stop offset="0.4762" stop-color="#15CF74"/>
<stop offset="0.8009" stop-color="#06E775"/>
<stop offset="1" stop-color="#00F076"/>
</linearGradient>
<clipPath id="clip0_234_681">
<rect width="130.613" height="48.1564" fill="white" transform="translate(0.387207 0.37793)"/>
</clipPath>
</defs>
</svg>
