<svg width="36" height="36" viewBox="0 0 36 36" fill="none" xmlns="http://www.w3.org/2000/svg">
<rect width="36" height="36" fill="#404B4B"/>
<path d="M27 11.6012C26.3306 11.8728 25.6174 12.0528 24.8737 12.1402C25.6388 11.7178 26.2226 11.054 26.4971 10.2539C25.7839 10.6472 24.9964 10.925 24.1571 11.08C23.4799 10.4131 22.5146 10 21.4616 10C19.4186 10 17.7739 11.5336 17.7739 13.4137C17.7739 13.6842 17.7986 13.9443 17.8594 14.1919C14.7915 14.0536 12.0769 12.6937 10.2533 10.6222C9.93487 11.133 9.74813 11.7178 9.74813 12.3472C9.74813 13.5292 10.4062 14.5769 11.3872 15.1835C10.7944 15.1731 10.2127 15.0139 9.72 14.7631C9.72 14.7735 9.72 14.7871 9.72 14.8006C9.72 16.4591 10.9991 17.8366 12.6765 18.1539C12.3761 18.2299 12.0487 18.2663 11.709 18.2663C11.4727 18.2663 11.2342 18.2538 11.0104 18.208C11.4885 19.5596 12.8453 20.5532 14.4585 20.5855C13.203 21.4938 11.6089 22.041 9.88313 22.041C9.5805 22.041 9.29025 22.0285 9 21.9942C10.6346 22.9691 12.5719 23.5257 14.661 23.5257C21.4515 23.5257 25.164 18.3235 25.164 13.8143C25.164 13.6634 25.1584 13.5177 25.1505 13.3731C25.8829 12.8924 26.4982 12.2921 27 11.6012Z" fill="white"/>
</svg>
