<svg width="18" height="14" viewBox="0 0 18 14" fill="none" xmlns="http://www.w3.org/2000/svg">
<path d="M18 1.60124C17.3306 1.87279 16.6174 2.05279 15.8737 2.14019C16.6388 1.71777 17.2226 1.05397 17.4971 0.253868C16.7839 0.647155 15.9964 0.924953 15.1571 1.07998C14.4799 0.413055 13.5146 0 12.4616 0C10.4186 0 8.77387 1.53361 8.77387 3.41369C8.77387 3.6842 8.79862 3.94431 8.85938 4.19194C5.7915 4.05356 3.07687 2.6937 1.25325 0.622184C0.934875 1.13304 0.748125 1.71777 0.748125 2.34724C0.748125 3.52918 1.40625 4.5769 2.38725 5.18348C1.79437 5.17307 1.21275 5.01389 0.72 4.76314C0.72 4.77355 0.72 4.78707 0.72 4.8006C0.72 6.45906 1.99912 7.8366 3.6765 8.15394C3.37612 8.22989 3.04875 8.26631 2.709 8.26631C2.47275 8.26631 2.23425 8.25382 2.01038 8.20804C2.4885 9.55958 3.84525 10.5532 5.4585 10.5855C4.203 11.4938 2.60888 12.041 0.883125 12.041C0.5805 12.041 0.29025 12.0285 0 11.9942C1.63462 12.9691 3.57188 13.5257 5.661 13.5257C12.4515 13.5257 16.164 8.32353 16.164 3.81426C16.164 3.66339 16.1584 3.51773 16.1505 3.37311C16.8829 2.89243 17.4982 2.29209 18 1.60124Z" fill="white"/>
</svg>
