<svg width="57" height="18" viewBox="0 0 57 18" fill="none" xmlns="http://www.w3.org/2000/svg">
<g clip-path="url(#clip0_38_630)">
<path d="M24.7664 17.2904H20.2391L23.0686 0.303531H27.5964L24.7664 17.2904ZM16.4304 0.303531L12.1143 11.9872L11.6035 9.47126L11.604 9.47217L10.0806 1.833C10.0806 1.833 9.89644 0.303531 7.93303 0.303531H0.797595L0.713867 0.591158C0.713867 0.591158 2.8959 1.03464 5.44958 2.53276L9.38291 17.2908H14.1L21.3029 0.303531H16.4304ZM52.0402 17.2904H56.1972L52.5728 0.303077H48.9334C47.2528 0.303077 46.8435 1.569 46.8435 1.569L40.0913 17.2904H44.8108L45.7546 14.7672H51.5099L52.0402 17.2904ZM47.0584 11.2815L49.4372 4.92466L50.7754 11.2815H47.0584ZM40.4453 4.38848L41.0914 0.740651C41.0914 0.740651 39.0978 0 37.0195 0C34.7728 0 29.4375 0.959213 29.4375 5.62351C29.4375 10.012 35.6994 10.0665 35.6994 12.3716C35.6994 14.6767 30.0827 14.2637 28.229 12.8101L27.5559 16.6242C27.5559 16.6242 29.5775 17.5835 32.6661 17.5835C35.7557 17.5835 40.4165 16.0208 40.4165 11.7677C40.4165 7.35109 34.0983 6.93987 34.0983 5.01963C34.0988 3.09893 38.508 3.34566 40.4453 4.38848Z" fill="#2566AF"/>
<path d="M11.604 9.47211L10.0806 1.83294C10.0806 1.83294 9.89644 0.303467 7.93303 0.303467H0.797595L0.713867 0.591094C0.713867 0.591094 4.14344 1.2854 7.43299 3.88677C10.5784 6.37318 11.604 9.47211 11.604 9.47211Z" fill="#E6A540"/>
</g>
<defs>
<clipPath id="clip0_38_630">
<rect width="57" height="17.5835" fill="white"/>
</clipPath>
</defs>
</svg>
