<svg width="57" height="19" viewBox="0 0 57 19" fill="none" xmlns="http://www.w3.org/2000/svg">
<g clip-path="url(#clip0_1551_1401)">
<path d="M24.7664 18.5521H20.2391L23.0686 0.32568H27.5964L24.7664 18.5521ZM16.4304 0.32568L12.1143 12.8619L11.6035 10.1624L11.604 10.1634L10.0806 1.96676C10.0806 1.96676 9.89644 0.32568 7.93303 0.32568H0.797595L0.713867 0.634296C0.713867 0.634296 2.8959 1.11014 5.44958 2.71758L9.38291 18.5526H14.1L21.3029 0.32568H16.4304V0.32568ZM52.0402 18.5521H56.1972L52.5728 0.325193H48.9334C47.2528 0.325193 46.8435 1.68349 46.8435 1.68349L40.0913 18.5521H44.8108L45.7546 15.8447H51.5099L52.0402 18.5521ZM47.0584 12.1048L49.4372 5.28401L50.7754 12.1048H47.0584ZM40.4453 4.70871L41.0914 0.794697C41.0914 0.794697 39.0978 0 37.0195 0C34.7728 0 29.4375 1.02921 29.4375 6.03386C29.4375 10.7426 35.6994 10.8011 35.6994 13.2744C35.6994 15.7477 30.0827 15.3045 28.229 13.7449L27.5559 17.8373C27.5559 17.8373 29.5775 18.8665 32.6661 18.8665C35.7557 18.8665 40.4165 17.1899 40.4165 12.6264C40.4165 7.88751 34.0983 7.44628 34.0983 5.38591C34.0988 3.32506 38.508 3.58979 40.4453 4.70871V4.70871Z" fill="#2566AF"/>
<path d="M11.604 10.1631L10.0806 1.96652C10.0806 1.96652 9.89644 0.325439 7.93303 0.325439H0.797595L0.713867 0.634055C0.713867 0.634055 4.14344 1.37902 7.43299 4.17022C10.5784 6.83807 11.604 10.1631 11.604 10.1631Z" fill="#E6A540"/>
</g>
<defs>
<clipPath id="clip0_1551_1401">
<rect width="57" height="18.8665" fill="white"/>
</clipPath>
</defs>
</svg>
