<svg width="18" height="18" viewBox="0 0 18 18" fill="none" xmlns="http://www.w3.org/2000/svg">
<path d="M16.8754 9.17493C16.8754 8.52743 16.8218 8.05493 16.7058 7.56494H9.16113V10.4874H13.5897C13.5004 11.2137 13.0183 12.3074 11.9468 13.0424L11.9318 13.1402L14.3173 14.9513L14.4825 14.9674C16.0004 13.5937 16.8754 11.5724 16.8754 9.17493" fill="#4285F4"/>
<path d="M9.16099 16.8751C11.3306 16.8751 13.152 16.175 14.4824 14.9675L11.9467 13.0425C11.2681 13.5062 10.3574 13.83 9.16099 13.83C7.03601 13.83 5.23246 12.4563 4.58954 10.5575L4.4953 10.5653L2.01486 12.4466L1.98242 12.535C3.30383 15.1075 6.01811 16.8751 9.16099 16.8751Z" fill="#34A853"/>
<path d="M4.59022 10.5576C4.42059 10.0676 4.32241 9.54257 4.32241 9.0001C4.32241 8.45756 4.42059 7.93258 4.5813 7.44259L4.57681 7.33823L2.06527 5.42676L1.9831 5.46506C1.43848 6.53258 1.12598 7.73135 1.12598 9.0001C1.12598 10.2688 1.43848 11.4676 1.9831 12.5351L4.59022 10.5576" fill="#FBBC05"/>
<path d="M9.16103 4.16998C10.6699 4.16998 11.6878 4.80873 12.2682 5.34251L14.536 3.1725C13.1432 1.90375 11.3306 1.125 9.16103 1.125C6.01814 1.125 3.30384 2.89249 1.98242 5.46497L4.58063 7.44249C5.23248 5.54375 7.03604 4.16998 9.16103 4.16998" fill="#EB4335"/>
</svg>
