<svg width="18" height="15" viewBox="0 0 18 15" fill="none" xmlns="http://www.w3.org/2000/svg">
<path d="M18 1.71808C17.3306 2.00945 16.6174 2.20258 15.8737 2.29636C16.6387 1.84312 17.2226 1.13088 17.4971 0.272393C16.7839 0.694378 15.9964 0.992447 15.1571 1.15879C14.4799 0.443196 13.5146 0 12.4616 0C10.4186 0 8.77387 1.64552 8.77387 3.66279C8.77387 3.95304 8.79862 4.23213 8.85938 4.49783C5.7915 4.34935 3.07688 2.89026 1.25325 0.667585C0.934875 1.21572 0.748125 1.84312 0.748125 2.51852C0.748125 3.7867 1.40625 4.91088 2.38725 5.56172C1.79437 5.55056 1.21275 5.37976 0.72 5.11071C0.72 5.12188 0.72 5.13639 0.72 5.1509C0.72 6.93038 1.99912 8.40845 3.6765 8.74894C3.37612 8.83043 3.04875 8.86951 2.709 8.86951C2.47275 8.86951 2.23425 8.85611 2.01037 8.80699C2.4885 10.2571 3.84525 11.3233 5.4585 11.3579C4.203 12.3325 2.60888 12.9197 0.883125 12.9197C0.5805 12.9197 0.29025 12.9063 0 12.8694C1.63462 13.9155 3.57188 14.5127 5.661 14.5127C12.4515 14.5127 16.164 8.93091 16.164 4.09259C16.164 3.93072 16.1584 3.77442 16.1505 3.61925C16.8829 3.10349 17.4982 2.45935 18 1.71808Z" fill="white"/>
</svg>
